<?xml version="1.0" encoding="UTF-8" standalone="no"?>
<!-- Created with Inkscape (http://www.inkscape.org/) -->

<svg
   version="1.1"
   id="svg20016"
   xml:space="preserve"
   width="1151.9999"
   height="1151.9999"
   viewBox="0 0 1151.9999 1151.9999"
   sodipodi:docname="connector_2x5.pdf"
   inkscape:version="1.1 (c68e22c387, 2021-05-23)"
   xmlns:inkscape="http://www.inkscape.org/namespaces/inkscape"
   xmlns:sodipodi="http://sodipodi.sourceforge.net/DTD/sodipodi-0.dtd"
   xmlns="http://www.w3.org/2000/svg"
   xmlns:svg="http://www.w3.org/2000/svg"><defs
     id="defs20020" /><sodipodi:namedview
     id="namedview20018"
     pagecolor="#ffffff"
     bordercolor="#666666"
     borderopacity="1.0"
     inkscape:pageshadow="2"
     inkscape:pageopacity="0.0"
     inkscape:pagecheckerboard="0"
     showgrid="false"
     inkscape:zoom="0.45138894"
     inkscape:cx="577.10763"
     inkscape:cy="577.10763"
     inkscape:window-width="1366"
     inkscape:window-height="705"
     inkscape:window-x="-8"
     inkscape:window-y="-8"
     inkscape:window-maximized="1"
     inkscape:current-layer="g20022" /><g
     id="g20022"
     inkscape:groupmode="layer"
     inkscape:label="connector_2x5"
     transform="matrix(1.3333333,0,0,1.3333333,0,1.0133331e-5)"><g
       id="g20024"><path
         d="m 15.379,13.055 76.504,0.133 c 1.07,0 2.023,-0.157 2.023,2.136 L 93.812,40.516 H 13.445 V 15.227 c 0,-1.129 0.114,-2.172 1.934,-2.172 z"
         style="fill:#a8b0ab;fill-opacity:1;fill-rule:nonzero;stroke:none"
         id="path20026" /><path
         d="M 92.551,12.746 H 14.594 c -0.836,0 -1.516,0.68 -1.516,1.516 V 40.75 c 0,0.191 0.152,0.344 0.34,0.344 h 80.305 c 0.191,0 0.343,-0.153 0.343,-0.344 V 14.262 c 0,-0.836 -0.679,-1.516 -1.515,-1.516 z m -77.957,0.688 h 77.957 c 0.461,0 0.832,0.371 0.832,0.828 0,0 0,10.664 0,18.375 H 37.664 c -2.043,3.691 -5.98,6.199 -10.492,6.199 -4.52,0 -8.453,-2.508 -10.492,-6.199 h -2.918 c 0,-7.711 0,-18.375 0,-18.375 0,-0.457 0.371,-0.828 0.832,-0.828 z"
         style="fill:#000000;fill-opacity:1;fill-rule:nonzero;stroke:none"
         id="path20028" /><path
         d="m 36.379,25.941 c 0,5.086 -4.117,9.204 -9.199,9.207 -5.082,0.004 -9.203,-4.113 -9.207,-9.195 0,-0.004 0,-0.004 0,-0.012 -0.004,-5.078 4.113,-9.203 9.195,-9.207 5.082,0 9.207,4.114 9.211,9.2 0,0 0,0.007 0,0.007 z"
         style="fill:#ffffff;fill-opacity:1;fill-rule:nonzero;stroke:none"
         id="path20030" /><path
         d="m 34.656,18.445 c 2.039,2.043 3.063,4.543 3.063,7.496 0,2.957 -1.008,5.43 -3.012,7.418 -2.129,2.094 -4.645,3.141 -7.547,3.141 -2.867,0 -5.34,-1.039 -7.414,-3.113 -2.078,-2.078 -3.113,-4.559 -3.113,-7.446 0,-2.882 1.035,-5.382 3.113,-7.496 2.024,-2.039 4.492,-3.058 7.414,-3.058 2.957,0 5.457,1.019 7.496,3.058 z M 21.121,19.82 c -1.726,1.742 -2.59,3.785 -2.59,6.125 0,2.34 0.856,4.367 2.563,6.071 1.707,1.711 3.738,2.562 6.097,2.562 2.36,0 4.411,-0.863 6.153,-2.586 1.656,-1.601 2.484,-3.617 2.484,-6.047 0,-2.41 -0.844,-4.457 -2.523,-6.136 -1.684,-1.68 -3.719,-2.52 -6.114,-2.52 -2.394,0 -4.418,0.84 -6.07,2.531 z m 4.539,5.098 C 25.398,24.344 25,24.055 24.473,24.055 c -0.926,0 -1.395,0.625 -1.395,1.879 0,1.25 0.469,1.878 1.395,1.878 0.617,0 1.054,-0.308 1.32,-0.917 l 1.289,0.687 c -0.613,1.09 -1.539,1.637 -2.766,1.637 -0.949,0 -1.707,-0.289 -2.281,-0.871 -0.57,-0.582 -0.855,-1.383 -0.855,-2.407 0,-1.003 0.293,-1.8 0.882,-2.39 0.586,-0.59 1.325,-0.887 2.2,-0.887 1.3,0 2.23,0.512 2.793,1.539 z m 6.067,0 c -0.262,-0.574 -0.653,-0.863 -1.161,-0.863 -0.949,0 -1.421,0.625 -1.421,1.879 0,1.25 0.472,1.878 1.421,1.878 0.618,0 1.047,-0.308 1.293,-0.917 l 1.317,0.687 c -0.614,1.09 -1.531,1.637 -2.758,1.637 -0.949,0 -1.707,-0.289 -2.277,-0.871 -0.571,-0.582 -0.856,-1.383 -0.856,-2.407 0,-1.003 0.289,-1.8 0.871,-2.39 0.574,-0.59 1.313,-0.887 2.207,-0.887 1.297,0 2.227,0.512 2.789,1.539 z"
         style="fill:#000000;fill-opacity:1;fill-rule:nonzero;stroke:none"
         id="path20032" /><path
         d="m 55.262,23.02 c 0,4.003 -3.246,7.25 -7.25,7.25 -4,0 -7.246,-3.247 -7.246,-7.25 0,-4 3.246,-7.247 7.246,-7.247 4.004,0 7.25,3.247 7.25,7.247 z"
         style="fill:#ffffff;fill-opacity:1;fill-rule:nonzero;stroke:none"
         id="path20034" /><path
         d="m 50.109,20.926 c 0,-0.281 -0.226,-0.508 -0.504,-0.508 h -3.203 c -0.277,0 -0.504,0.227 -0.504,0.508 v 3.199 h 0.895 v 3.793 h 2.426 v -3.793 h 0.89 z"
         style="fill:#000000;fill-opacity:1;fill-rule:nonzero;stroke:none"
         id="path20036" /><path
         d="m 49.098,18.902 c 0,0.606 -0.489,1.094 -1.094,1.094 -0.606,0 -1.094,-0.488 -1.094,-1.094 0,-0.601 0.488,-1.093 1.094,-1.093 0.605,0 1.094,0.492 1.094,1.093 z"
         style="fill:#000000;fill-opacity:1;fill-rule:nonzero;stroke:none"
         id="path20038" /><path
         d="m 47.992,15.035 c -2.164,0 -4,0.758 -5.504,2.27 -1.539,1.566 -2.308,3.418 -2.308,5.558 0,2.137 0.769,3.977 2.308,5.516 1.543,1.539 3.379,2.309 5.504,2.309 2.156,0 4.024,-0.774 5.606,-2.329 1.492,-1.472 2.234,-3.304 2.234,-5.496 0,-2.195 -0.758,-4.043 -2.273,-5.558 -1.516,-1.512 -3.368,-2.27 -5.567,-2.27 z m 0.024,1.41 c 1.777,0 3.285,0.625 4.523,1.879 1.254,1.238 1.883,2.75 1.883,4.539 0,1.797 -0.613,3.293 -1.844,4.481 -1.293,1.277 -2.812,1.914 -4.562,1.914 -1.75,0 -3.258,-0.633 -4.528,-1.899 -1.265,-1.261 -1.898,-2.761 -1.898,-4.496 0,-1.734 0.637,-3.25 1.918,-4.539 1.23,-1.254 2.73,-1.879 4.508,-1.879 z"
         style="fill:#000000;fill-opacity:1;fill-rule:evenodd;stroke:none"
         id="path20040" /><path
         d="m 45.746,34.848 c 0.211,0 0.406,0.023 0.582,0.058 0.172,0.035 0.324,0.098 0.449,0.184 0.129,0.086 0.223,0.199 0.293,0.34 0.071,0.144 0.102,0.316 0.102,0.527 0,0.227 -0.047,0.414 -0.152,0.563 -0.102,0.152 -0.254,0.273 -0.454,0.371 0.274,0.078 0.481,0.218 0.618,0.414 0.136,0.199 0.207,0.437 0.207,0.718 0,0.223 -0.047,0.418 -0.133,0.586 -0.09,0.161 -0.207,0.301 -0.356,0.403 -0.148,0.105 -0.32,0.179 -0.507,0.23 -0.192,0.051 -0.387,0.078 -0.586,0.078 h -2.172 v -4.472 z m -0.129,1.808 c 0.176,0 0.321,-0.043 0.434,-0.125 0.113,-0.082 0.168,-0.219 0.168,-0.406 0,-0.105 -0.02,-0.187 -0.055,-0.254 -0.035,-0.07 -0.086,-0.117 -0.152,-0.156 -0.063,-0.039 -0.133,-0.067 -0.215,-0.078 -0.082,-0.016 -0.164,-0.024 -0.254,-0.024 h -0.922 v 1.043 z m 0.059,1.895 c 0.094,0 0.187,-0.008 0.273,-0.024 0.09,-0.019 0.168,-0.05 0.235,-0.097 0.066,-0.039 0.121,-0.102 0.16,-0.18 0.039,-0.07 0.058,-0.168 0.058,-0.285 0,-0.231 -0.066,-0.395 -0.195,-0.492 -0.129,-0.098 -0.301,-0.145 -0.512,-0.145 h -1.074 v 1.223 z"
         style="fill:#ffffff;fill-opacity:1;fill-rule:nonzero;stroke:none"
         id="path20042" /><path
         d="m 47.562,34.848 h 1.102 l 1.047,1.765 1.039,-1.765 h 1.098 l -1.66,2.754 v 1.718 h -0.989 v -1.742 z"
         style="fill:#ffffff;fill-opacity:1;fill-rule:nonzero;stroke:none"
         id="path20044" /><path
         d="m 79.516,38.211 c 0.054,0.105 0.125,0.191 0.218,0.258 0.09,0.062 0.192,0.109 0.313,0.14 0.121,0.032 0.246,0.047 0.375,0.047 0.086,0 0.18,-0.008 0.281,-0.019 0.102,-0.016 0.192,-0.043 0.281,-0.086 0.09,-0.039 0.161,-0.098 0.219,-0.172 0.055,-0.07 0.09,-0.168 0.09,-0.277 0,-0.122 -0.043,-0.219 -0.117,-0.297 -0.078,-0.075 -0.18,-0.137 -0.305,-0.188 -0.125,-0.047 -0.269,-0.094 -0.422,-0.129 -0.164,-0.039 -0.32,-0.082 -0.484,-0.125 -0.164,-0.043 -0.328,-0.093 -0.488,-0.156 -0.157,-0.059 -0.301,-0.137 -0.422,-0.234 -0.129,-0.094 -0.231,-0.215 -0.305,-0.36 -0.078,-0.144 -0.117,-0.316 -0.117,-0.519 0,-0.235 0.051,-0.43 0.148,-0.602 0.098,-0.168 0.223,-0.308 0.383,-0.422 0.156,-0.113 0.34,-0.195 0.539,-0.25 0.199,-0.054 0.399,-0.082 0.598,-0.082 0.238,0 0.461,0.028 0.676,0.078 0.214,0.055 0.402,0.137 0.57,0.258 0.168,0.114 0.301,0.266 0.398,0.446 0.098,0.183 0.149,0.402 0.149,0.66 h -0.957 c -0.008,-0.133 -0.035,-0.246 -0.082,-0.332 -0.047,-0.086 -0.114,-0.157 -0.192,-0.207 -0.078,-0.051 -0.168,-0.086 -0.269,-0.106 -0.102,-0.019 -0.215,-0.031 -0.332,-0.031 -0.082,0 -0.16,0.008 -0.239,0.023 -0.078,0.02 -0.152,0.047 -0.214,0.09 -0.067,0.039 -0.118,0.094 -0.161,0.156 -0.039,0.063 -0.058,0.141 -0.058,0.239 0,0.086 0.015,0.156 0.047,0.211 0.031,0.054 0.097,0.105 0.195,0.152 0.102,0.043 0.234,0.094 0.406,0.137 0.176,0.043 0.403,0.105 0.68,0.176 0.082,0.015 0.199,0.046 0.348,0.089 0.148,0.047 0.293,0.114 0.437,0.211 0.149,0.094 0.274,0.227 0.383,0.387 0.105,0.16 0.156,0.367 0.156,0.617 0,0.203 -0.039,0.391 -0.117,0.567 -0.078,0.175 -0.199,0.328 -0.355,0.457 -0.153,0.125 -0.348,0.226 -0.582,0.296 -0.231,0.071 -0.497,0.106 -0.805,0.106 -0.242,0 -0.485,-0.031 -0.715,-0.09 -0.234,-0.062 -0.438,-0.156 -0.613,-0.289 -0.18,-0.129 -0.317,-0.293 -0.422,-0.496 -0.106,-0.199 -0.156,-0.438 -0.153,-0.711 h 0.954 c 0,0.152 0.027,0.277 0.082,0.379 z"
         style="fill:#ffffff;fill-opacity:1;fill-rule:nonzero;stroke:none"
         id="path20046" /><path
         d="m 85.055,34.848 1.672,4.472 h -1.024 l -0.336,-0.996 h -1.672 l -0.351,0.996 h -0.989 l 1.692,-4.472 z m 0.054,2.742 -0.562,-1.641 h -0.012 l -0.582,1.641 z"
         style="fill:#ffffff;fill-opacity:1;fill-rule:nonzero;stroke:none"
         id="path20048" /><path
         d="m 62.023,34.848 1.864,3 h 0.011 v -3 h 0.922 v 4.472 h -0.98 l -1.863,-2.992 h -0.012 v 2.992 h -0.922 v -4.472 z"
         style="fill:#ffffff;fill-opacity:1;fill-rule:nonzero;stroke:none"
         id="path20050" /><path
         d="m 68.551,36.039 c -0.059,-0.094 -0.129,-0.176 -0.219,-0.246 -0.086,-0.07 -0.187,-0.129 -0.297,-0.168 -0.109,-0.039 -0.226,-0.059 -0.347,-0.059 -0.223,0 -0.411,0.043 -0.563,0.129 -0.156,0.086 -0.281,0.2 -0.375,0.344 -0.098,0.145 -0.168,0.305 -0.211,0.492 -0.043,0.184 -0.066,0.375 -0.066,0.571 0,0.183 0.023,0.371 0.066,0.546 0.043,0.176 0.113,0.336 0.211,0.477 0.094,0.145 0.219,0.258 0.375,0.344 0.152,0.082 0.34,0.125 0.563,0.125 0.3,0 0.535,-0.09 0.703,-0.274 0.171,-0.183 0.273,-0.425 0.312,-0.726 h 0.949 c -0.023,0.277 -0.086,0.531 -0.191,0.758 -0.106,0.222 -0.246,0.418 -0.414,0.574 -0.172,0.16 -0.371,0.281 -0.602,0.367 -0.226,0.082 -0.48,0.125 -0.757,0.125 -0.344,0 -0.649,-0.059 -0.922,-0.18 -0.274,-0.117 -0.504,-0.281 -0.696,-0.492 -0.187,-0.207 -0.332,-0.453 -0.429,-0.734 -0.102,-0.282 -0.153,-0.586 -0.153,-0.91 0,-0.336 0.051,-0.645 0.153,-0.934 0.097,-0.285 0.242,-0.535 0.429,-0.746 0.192,-0.211 0.422,-0.383 0.696,-0.504 0.273,-0.121 0.578,-0.18 0.922,-0.18 0.246,0 0.48,0.035 0.699,0.106 0.218,0.074 0.414,0.176 0.586,0.312 0.175,0.137 0.316,0.305 0.429,0.504 0.114,0.199 0.188,0.43 0.215,0.688 h -0.953 c -0.016,-0.11 -0.055,-0.215 -0.113,-0.309 z"
         style="fill:#ffffff;fill-opacity:1;fill-rule:nonzero;stroke:none"
         id="path20052" /><path
         d="m 90.406,22.859 c 0.008,3.942 -3.191,7.145 -7.136,7.149 -3.946,0 -7.145,-3.192 -7.149,-7.141 0,0 0,-0.008 0,-0.008 -0.004,-3.945 3.191,-7.144 7.141,-7.148 3.941,-0.004 7.144,3.191 7.144,7.137 0,0.004 0,0.007 0,0.011 z"
         style="fill:#ffffff;fill-opacity:1;fill-rule:nonzero;stroke:none"
         id="path20054" /><path
         d="m 83.215,15.031 c -2.168,0 -4.004,0.758 -5.508,2.27 -1.539,1.566 -2.312,3.418 -2.312,5.558 0,2.137 0.773,3.977 2.312,5.516 1.543,1.539 3.379,2.309 5.508,2.309 2.156,0 4.019,-0.778 5.601,-2.329 1.489,-1.472 2.235,-3.308 2.235,-5.496 0,-2.191 -0.758,-4.047 -2.274,-5.558 -1.515,-1.512 -3.367,-2.27 -5.562,-2.27 z m 0.019,1.41 c 1.774,0 3.282,0.625 4.524,1.879 1.254,1.239 1.879,2.75 1.879,4.539 0,1.801 -0.61,3.293 -1.84,4.481 -1.289,1.277 -2.817,1.918 -4.563,1.918 -1.75,0 -3.257,-0.633 -4.527,-1.899 -1.266,-1.265 -1.902,-2.765 -1.902,-4.5 0,-1.734 0.64,-3.25 1.925,-4.539 1.223,-1.254 2.727,-1.879 4.504,-1.879 z"
         style="fill:#000000;fill-opacity:1;fill-rule:nonzero;stroke:none"
         id="path20056" /><path
         d="m 79.742,21.754 c 0.317,-1.969 1.699,-3.024 3.438,-3.024 2.5,0 4.023,1.817 4.023,4.235 0,2.355 -1.621,4.187 -4.062,4.187 -1.68,0 -3.18,-1.031 -3.453,-3.062 h 1.968 c 0.059,1.055 0.742,1.426 1.719,1.426 1.113,0 1.836,-1.036 1.836,-2.614 0,-1.656 -0.625,-2.535 -1.797,-2.535 -0.859,0 -1.602,0.317 -1.758,1.387 L 82.23,21.75 80.68,23.301 79.125,21.75 Z"
         style="fill:#000000;fill-opacity:1;fill-rule:nonzero;stroke:none"
         id="path20058" /><path
         d="m 72.895,22.859 c 0.003,4.02 -3.254,7.282 -7.274,7.282 -4.019,0.004 -7.285,-3.25 -7.289,-7.274 0,0 0,-0.008 0,-0.008 0,-4.023 3.258,-7.281 7.277,-7.285 4.02,-0.004 7.282,3.254 7.286,7.274 0,0.004 0,0.007 0,0.011 z"
         style="fill:#ffffff;fill-opacity:1;fill-rule:nonzero;stroke:none"
         id="path20060" /><path
         d="m 65.605,15.031 c 2.192,0 4.047,0.758 5.563,2.27 1.516,1.511 2.273,3.367 2.273,5.558 0,2.188 -0.746,4.024 -2.234,5.496 -1.578,1.551 -3.449,2.329 -5.602,2.329 -2.132,0 -3.964,-0.77 -5.503,-2.309 -1.543,-1.539 -2.313,-3.379 -2.313,-5.516 0,-2.14 0.77,-3.992 2.313,-5.558 1.5,-1.512 3.332,-2.27 5.503,-2.27 z m -6.058,5.727 c -0.235,0.656 -0.348,1.359 -0.348,2.101 0,1.735 0.633,3.235 1.899,4.5 1.265,1.266 2.773,1.899 4.527,1.899 1.75,0 3.27,-0.641 4.563,-1.922 0.433,-0.414 0.789,-0.871 1.07,-1.367 l -2.949,-1.313 c -0.204,0.992 -1.086,1.664 -2.157,1.742 v 1.204 h -0.898 v -1.204 c -0.879,-0.011 -1.727,-0.371 -2.375,-0.937 l 1.078,-1.086 c 0.52,0.488 1.039,0.707 1.746,0.707 0.461,0 0.969,-0.18 0.969,-0.781 0,-0.211 -0.082,-0.356 -0.211,-0.469 L 65.715,23.5 64.785,23.086 c -0.461,-0.203 -0.847,-0.375 -1.238,-0.551 z m 6.078,-4.317 c -1.777,0 -3.277,0.625 -4.508,1.879 -0.336,0.336 -0.625,0.688 -0.871,1.055 l 2.992,1.336 c 0.27,-0.832 1.059,-1.336 2.016,-1.391 v -1.207 h 0.898 v 1.207 c 0.621,0.028 1.297,0.2 1.969,0.715 l -1.031,1.059 c -0.379,-0.27 -0.86,-0.457 -1.336,-0.457 -0.391,0 -0.938,0.117 -0.938,0.605 0,0.074 0.024,0.141 0.071,0.199 l 1,0.446 0.675,0.301 c 0.434,0.191 0.848,0.378 1.258,0.558 l 4.012,1.789 c 0.133,-0.527 0.199,-1.086 0.199,-1.676 0,-1.789 -0.629,-3.3 -1.883,-4.539 -1.242,-1.254 -2.75,-1.879 -4.523,-1.879 z"
         style="fill:#000000;fill-opacity:1;fill-rule:nonzero;stroke:none"
         id="path20062" /><path
         d="m 110.305,16.074 c 0,0.418 -0.075,0.805 -0.219,1.156 -0.137,0.356 -0.336,0.665 -0.594,0.922 -0.324,0.325 -0.711,0.571 -1.156,0.735 -0.438,0.156 -0.996,0.234 -1.672,0.234 h -1.234 v 3.5 h -1.25 V 13.23 h 2.547 c 0.562,0 1.035,0.055 1.421,0.157 0.395,0.093 0.743,0.242 1.047,0.437 0.352,0.242 0.625,0.543 0.813,0.906 0.195,0.356 0.297,0.805 0.297,1.344 z m -1.297,0.031 c 0,-0.32 -0.059,-0.601 -0.172,-0.843 -0.106,-0.239 -0.277,-0.438 -0.516,-0.594 -0.199,-0.125 -0.429,-0.211 -0.687,-0.266 -0.262,-0.062 -0.586,-0.093 -0.969,-0.093 h -1.234 v 3.75 h 1.047 c 0.5,0 0.906,-0.039 1.218,-0.125 0.321,-0.094 0.582,-0.239 0.782,-0.438 0.195,-0.207 0.332,-0.422 0.406,-0.641 0.082,-0.218 0.125,-0.468 0.125,-0.75 z"
         style="fill:#000000;fill-opacity:1;fill-rule:nonzero;stroke:none"
         id="path20064" /><path
         d="m 117.555,19.105 c 0,1.149 -0.297,2.055 -0.891,2.719 -0.586,0.668 -1.371,1 -2.359,1 -1,0 -1.793,-0.332 -2.375,-1 -0.586,-0.664 -0.875,-1.57 -0.875,-2.719 0,-1.144 0.289,-2.05 0.875,-2.718 0.582,-0.664 1.375,-1 2.375,-1 0.988,0 1.773,0.336 2.359,1 0.594,0.668 0.891,1.574 0.891,2.718 z m -1.235,0 c 0,-0.914 -0.179,-1.593 -0.531,-2.031 -0.355,-0.445 -0.851,-0.672 -1.484,-0.672 -0.649,0 -1.149,0.227 -1.5,0.672 -0.356,0.438 -0.532,1.117 -0.532,2.031 0,0.887 0.176,1.559 0.532,2.016 0.363,0.449 0.863,0.672 1.5,0.672 0.625,0 1.113,-0.223 1.468,-0.672 0.364,-0.457 0.547,-1.129 0.547,-2.016 z"
         style="fill:#000000;fill-opacity:1;fill-rule:nonzero;stroke:none"
         id="path20066" /><path
         d="m 128.238,15.574 -1.828,7.047 h -1.094 l -1.812,-5.422 -1.797,5.422 h -1.094 l -1.843,-7.047 h 1.234 l 1.281,5.453 1.766,-5.453 h 0.969 l 1.812,5.453 1.219,-5.453 z"
         style="fill:#000000;fill-opacity:1;fill-rule:nonzero;stroke:none"
         id="path20068" /><path
         d="m 135.664,22.621 h -1.187 v -0.734 c -0.336,0.293 -0.688,0.523 -1.063,0.687 -0.367,0.164 -0.766,0.25 -1.203,0.25 -0.844,0 -1.512,-0.32 -2,-0.969 -0.492,-0.656 -0.734,-1.554 -0.734,-2.703 0,-0.593 0.082,-1.125 0.25,-1.593 0.164,-0.469 0.394,-0.864 0.687,-1.188 0.281,-0.32 0.609,-0.566 0.984,-0.734 0.383,-0.164 0.786,-0.25 1.204,-0.25 0.363,0 0.687,0.043 0.968,0.125 0.289,0.074 0.594,0.195 0.907,0.359 v -3.062 h 1.187 z m -1.187,-1.734 v -4.032 c -0.313,-0.144 -0.602,-0.242 -0.86,-0.296 -0.25,-0.063 -0.523,-0.094 -0.812,-0.094 -0.668,0 -1.188,0.234 -1.563,0.703 -0.367,0.461 -0.547,1.117 -0.547,1.969 0,0.836 0.141,1.468 0.422,1.906 0.289,0.43 0.75,0.641 1.375,0.641 0.332,0 0.672,-0.071 1.016,-0.219 0.351,-0.145 0.676,-0.336 0.969,-0.578 z"
         style="fill:#000000;fill-opacity:1;fill-rule:nonzero;stroke:none"
         id="path20070" /><path
         d="m 143.895,19.23 h -5.188 c 0,0.43 0.063,0.805 0.188,1.125 0.132,0.325 0.316,0.59 0.546,0.797 0.219,0.2 0.473,0.352 0.766,0.453 0.301,0.094 0.633,0.141 1,0.141 0.477,0 0.957,-0.094 1.438,-0.281 0.488,-0.188 0.835,-0.375 1.046,-0.563 h 0.063 v 1.297 c -0.399,0.168 -0.805,0.309 -1.219,0.422 -0.418,0.102 -0.855,0.156 -1.312,0.156 -1.168,0 -2.078,-0.312 -2.735,-0.937 -0.656,-0.633 -0.984,-1.535 -0.984,-2.703 0,-1.145 0.312,-2.055 0.937,-2.735 0.625,-0.675 1.454,-1.015 2.485,-1.015 0.945,0 1.676,0.277 2.187,0.828 0.52,0.555 0.782,1.34 0.782,2.359 z m -1.157,-0.906 c 0,-0.625 -0.156,-1.101 -0.468,-1.437 -0.313,-0.344 -0.782,-0.516 -1.407,-0.516 -0.636,0 -1.14,0.188 -1.515,0.563 -0.375,0.367 -0.59,0.828 -0.641,1.39 z"
         style="fill:#000000;fill-opacity:1;fill-rule:nonzero;stroke:none"
         id="path20072" /><path
         d="m 150.086,16.871 h -0.063 c -0.179,-0.039 -0.351,-0.066 -0.515,-0.078 -0.168,-0.02 -0.367,-0.031 -0.594,-0.031 -0.367,0 -0.719,0.086 -1.062,0.25 -0.336,0.156 -0.664,0.359 -0.985,0.609 v 5 h -1.172 v -7.047 h 1.172 v 1.047 c 0.477,-0.375 0.895,-0.641 1.25,-0.797 0.363,-0.164 0.727,-0.25 1.094,-0.25 0.207,0 0.359,0.012 0.453,0.031 0.094,0.012 0.234,0.028 0.422,0.047 z"
         style="fill:#000000;fill-opacity:1;fill-rule:nonzero;stroke:none"
         id="path20074" /><path
         d="m 162.824,14.309 c 0.383,0.429 0.676,0.949 0.875,1.562 0.207,0.606 0.313,1.293 0.313,2.063 0,0.773 -0.106,1.464 -0.313,2.078 -0.211,0.617 -0.5,1.125 -0.875,1.531 -0.386,0.418 -0.844,0.734 -1.375,0.953 -0.523,0.219 -1.121,0.328 -1.797,0.328 -0.656,0 -1.257,-0.109 -1.797,-0.328 -0.543,-0.219 -1,-0.535 -1.375,-0.953 -0.375,-0.414 -0.668,-0.926 -0.875,-1.531 -0.21,-0.602 -0.312,-1.297 -0.312,-2.078 0,-0.758 0.098,-1.442 0.297,-2.047 0.207,-0.614 0.504,-1.141 0.89,-1.578 0.375,-0.407 0.832,-0.719 1.375,-0.938 0.551,-0.219 1.149,-0.328 1.797,-0.328 0.676,0 1.282,0.109 1.813,0.328 0.531,0.219 0.984,0.531 1.359,0.938 z m -0.109,3.625 c 0,-1.219 -0.277,-2.157 -0.828,-2.813 -0.543,-0.664 -1.289,-1 -2.235,-1 -0.949,0 -1.699,0.336 -2.25,1 -0.543,0.656 -0.812,1.594 -0.812,2.813 0,1.23 0.273,2.171 0.828,2.828 0.562,0.656 1.305,0.984 2.234,0.984 0.938,0 1.68,-0.328 2.235,-0.984 0.551,-0.657 0.828,-1.598 0.828,-2.828 z"
         style="fill:#000000;fill-opacity:1;fill-rule:nonzero;stroke:none"
         id="path20076" /><path
         d="m 169.691,13.965 h -0.062 c -0.137,-0.039 -0.309,-0.078 -0.516,-0.11 -0.211,-0.039 -0.39,-0.062 -0.547,-0.062 -0.511,0 -0.882,0.117 -1.109,0.344 -0.23,0.218 -0.344,0.621 -0.344,1.203 v 0.234 h 2.141 v 1 h -2.109 v 6.047 h -1.172 v -6.047 h -0.813 v -1 h 0.813 v -0.219 c 0,-0.843 0.207,-1.488 0.625,-1.937 0.414,-0.445 1.015,-0.672 1.797,-0.672 0.257,0 0.492,0.016 0.703,0.047 0.218,0.023 0.414,0.047 0.593,0.078 z"
         style="fill:#000000;fill-opacity:1;fill-rule:nonzero;stroke:none"
         id="path20078" /><path
         d="m 181.02,22.621 h -5.938 V 13.23 h 1.25 v 8.282 h 4.688 z"
         style="fill:#000000;fill-opacity:1;fill-rule:nonzero;stroke:none"
         id="path20080" /><path
         d="m 183.441,14.402 h -1.328 v -1.234 h 1.328 z m -0.078,8.219 h -1.187 v -7.047 h 1.187 z"
         style="fill:#000000;fill-opacity:1;fill-rule:nonzero;stroke:none"
         id="path20082" /><path
         d="m 189.5,13.965 h -0.062 c -0.137,-0.039 -0.309,-0.078 -0.516,-0.11 -0.211,-0.039 -0.391,-0.062 -0.547,-0.062 -0.512,0 -0.883,0.117 -1.109,0.344 -0.231,0.218 -0.344,0.621 -0.344,1.203 v 0.234 h 2.14 v 1 h -2.109 v 6.047 h -1.172 v -6.047 h -0.812 v -1 h 0.812 v -0.219 c 0,-0.843 0.207,-1.488 0.625,-1.937 0.414,-0.445 1.016,-0.672 1.797,-0.672 0.258,0 0.492,0.016 0.703,0.047 0.219,0.023 0.414,0.047 0.594,0.078 z"
         style="fill:#000000;fill-opacity:1;fill-rule:nonzero;stroke:none"
         id="path20084" /><path
         d="m 196.148,19.23 h -5.187 c 0,0.43 0.062,0.805 0.187,1.125 0.133,0.325 0.317,0.59 0.547,0.797 0.219,0.2 0.473,0.352 0.766,0.453 0.301,0.094 0.633,0.141 1,0.141 0.477,0 0.957,-0.094 1.437,-0.281 0.489,-0.188 0.836,-0.375 1.047,-0.563 h 0.063 v 1.297 c -0.399,0.168 -0.805,0.309 -1.219,0.422 -0.418,0.102 -0.855,0.156 -1.312,0.156 -1.168,0 -2.079,-0.312 -2.735,-0.937 -0.656,-0.633 -0.984,-1.535 -0.984,-2.703 0,-1.145 0.312,-2.055 0.937,-2.735 0.625,-0.675 1.453,-1.015 2.485,-1.015 0.945,0 1.675,0.277 2.187,0.828 0.52,0.555 0.781,1.34 0.781,2.359 z m -1.156,-0.906 c 0,-0.625 -0.156,-1.101 -0.469,-1.437 -0.312,-0.344 -0.781,-0.516 -1.406,-0.516 -0.637,0 -1.14,0.188 -1.515,0.563 -0.375,0.367 -0.59,0.828 -0.641,1.39 z"
         style="fill:#000000;fill-opacity:1;fill-rule:nonzero;stroke:none"
         id="path20086" /><path
         d="m 111.57,38.762 h -1.328 l -0.922,-2.61 h -4.062 l -0.906,2.61 h -1.282 l 3.422,-9.391 h 1.672 z m -2.625,-3.688 -1.656,-4.609 -1.641,4.609 z"
         style="fill:#000000;fill-opacity:1;fill-rule:nonzero;stroke:none"
         id="path20088" /><path
         d="m 118.785,38.762 h -1.187 v -4.016 c 0,-0.32 -0.024,-0.625 -0.063,-0.906 -0.031,-0.281 -0.094,-0.5 -0.187,-0.656 -0.118,-0.176 -0.274,-0.305 -0.469,-0.391 -0.188,-0.094 -0.445,-0.141 -0.766,-0.141 -0.324,0 -0.664,0.086 -1.015,0.25 -0.356,0.157 -0.696,0.36 -1.016,0.61 v 5.25 h -1.172 v -7.047 h 1.172 v 0.797 c 0.375,-0.313 0.758,-0.551 1.156,-0.719 0.395,-0.176 0.801,-0.266 1.219,-0.266 0.758,0 1.336,0.231 1.734,0.688 0.395,0.461 0.594,1.121 0.594,1.984 z"
         style="fill:#000000;fill-opacity:1;fill-rule:nonzero;stroke:none"
         id="path20090" /><path
         d="m 126.785,38.762 h -1.187 v -0.735 c -0.336,0.293 -0.688,0.524 -1.063,0.688 -0.367,0.164 -0.765,0.25 -1.203,0.25 -0.844,0 -1.512,-0.32 -2,-0.969 -0.492,-0.656 -0.734,-1.555 -0.734,-2.703 0,-0.594 0.082,-1.125 0.25,-1.594 0.164,-0.469 0.394,-0.863 0.687,-1.187 0.281,-0.321 0.61,-0.567 0.985,-0.735 0.382,-0.164 0.785,-0.25 1.203,-0.25 0.363,0 0.687,0.043 0.968,0.125 0.289,0.075 0.594,0.196 0.907,0.36 v -3.063 h 1.187 z m -1.187,-1.735 v -4.031 c -0.313,-0.144 -0.602,-0.242 -0.86,-0.297 -0.25,-0.062 -0.523,-0.094 -0.812,-0.094 -0.668,0 -1.188,0.235 -1.563,0.704 -0.367,0.461 -0.547,1.117 -0.547,1.968 0,0.836 0.141,1.469 0.422,1.907 0.289,0.429 0.75,0.64 1.375,0.64 0.332,0 0.672,-0.07 1.016,-0.219 0.351,-0.144 0.676,-0.335 0.969,-0.578 z"
         style="fill:#000000;fill-opacity:1;fill-rule:nonzero;stroke:none"
         id="path20092" /><path
         d="m 133.52,33.012 h -0.063 c -0.18,-0.039 -0.352,-0.067 -0.516,-0.078 -0.168,-0.02 -0.367,-0.032 -0.593,-0.032 -0.368,0 -0.719,0.086 -1.063,0.25 -0.336,0.157 -0.664,0.36 -0.984,0.61 v 5 h -1.172 v -7.047 h 1.172 v 1.047 c 0.476,-0.375 0.894,-0.641 1.25,-0.797 0.363,-0.164 0.726,-0.25 1.094,-0.25 0.207,0 0.359,0.012 0.453,0.031 0.093,0.012 0.234,0.027 0.422,0.047 z"
         style="fill:#000000;fill-opacity:1;fill-rule:nonzero;stroke:none"
         id="path20094" /><path
         d="m 140.527,35.371 h -5.187 c 0,0.43 0.062,0.805 0.187,1.125 0.133,0.324 0.317,0.59 0.547,0.797 0.219,0.199 0.473,0.352 0.766,0.453 0.301,0.094 0.633,0.141 1,0.141 0.476,0 0.957,-0.094 1.437,-0.282 0.489,-0.187 0.836,-0.375 1.047,-0.562 h 0.063 v 1.297 c -0.399,0.168 -0.805,0.308 -1.219,0.422 -0.418,0.101 -0.856,0.156 -1.313,0.156 -1.167,0 -2.078,-0.313 -2.734,-0.938 -0.656,-0.632 -0.984,-1.535 -0.984,-2.703 0,-1.144 0.312,-2.054 0.937,-2.734 0.625,-0.676 1.453,-1.016 2.485,-1.016 0.945,0 1.675,0.278 2.187,0.828 0.52,0.555 0.781,1.34 0.781,2.36 z m -1.156,-0.906 c 0,-0.625 -0.156,-1.102 -0.469,-1.438 -0.312,-0.343 -0.781,-0.515 -1.406,-0.515 -0.637,0 -1.141,0.187 -1.516,0.562 -0.375,0.367 -0.589,0.828 -0.64,1.391 z"
         style="fill:#000000;fill-opacity:1;fill-rule:nonzero;stroke:none"
         id="path20096" /><path
         d="m 151.176,31.715 -1.828,7.047 h -1.094 l -1.813,-5.422 -1.796,5.422 h -1.094 l -1.844,-7.047 h 1.234 l 1.282,5.453 1.765,-5.453 h 0.969 l 1.813,5.453 1.218,-5.453 z"
         style="fill:#000000;fill-opacity:1;fill-rule:nonzero;stroke:none"
         id="path20098" /><path
         d="m 163.516,30.48 h -4.735 v 2.657 h 4.063 v 1.109 h -4.063 v 4.516 h -1.25 v -9.391 h 5.985 z"
         style="fill:#000000;fill-opacity:1;fill-rule:nonzero;stroke:none"
         id="path20100" /><path
         d="m 169.246,33.012 h -0.062 c -0.18,-0.039 -0.352,-0.067 -0.516,-0.078 -0.168,-0.02 -0.367,-0.032 -0.594,-0.032 -0.367,0 -0.719,0.086 -1.062,0.25 -0.336,0.157 -0.664,0.36 -0.985,0.61 v 5 h -1.172 v -7.047 h 1.172 v 1.047 c 0.477,-0.375 0.895,-0.641 1.25,-0.797 0.364,-0.164 0.727,-0.25 1.094,-0.25 0.207,0 0.359,0.012 0.453,0.031 0.094,0.012 0.235,0.027 0.422,0.047 z"
         style="fill:#000000;fill-opacity:1;fill-rule:nonzero;stroke:none"
         id="path20102" /><path
         d="m 176.195,38.762 h -1.187 V 37.98 c -0.399,0.313 -0.778,0.559 -1.141,0.735 -0.367,0.164 -0.773,0.25 -1.219,0.25 -0.742,0 -1.32,-0.223 -1.734,-0.672 -0.406,-0.457 -0.609,-1.125 -0.609,-2 v -4.578 h 1.187 v 4.015 c 0,0.356 0.016,0.665 0.047,0.922 0.039,0.25 0.113,0.465 0.219,0.641 0.113,0.187 0.258,0.324 0.437,0.406 0.188,0.086 0.453,0.125 0.797,0.125 0.301,0 0.633,-0.078 1,-0.234 0.363,-0.156 0.703,-0.36 1.016,-0.61 v -5.265 h 1.187 z"
         style="fill:#000000;fill-opacity:1;fill-rule:nonzero;stroke:none"
         id="path20104" /><path
         d="m 184.43,35.371 h -5.188 c 0,0.43 0.063,0.805 0.188,1.125 0.132,0.324 0.316,0.59 0.547,0.797 0.218,0.199 0.472,0.352 0.765,0.453 0.301,0.094 0.633,0.141 1,0.141 0.477,0 0.957,-0.094 1.438,-0.282 0.488,-0.187 0.836,-0.375 1.047,-0.562 h 0.062 v 1.297 c -0.398,0.168 -0.805,0.308 -1.219,0.422 -0.418,0.101 -0.855,0.156 -1.312,0.156 -1.168,0 -2.078,-0.313 -2.735,-0.938 -0.656,-0.632 -0.984,-1.535 -0.984,-2.703 0,-1.144 0.313,-2.054 0.938,-2.734 0.625,-0.676 1.453,-1.016 2.484,-1.016 0.945,0 1.676,0.278 2.187,0.828 0.52,0.555 0.782,1.34 0.782,2.36 z m -1.157,-0.906 c 0,-0.625 -0.156,-1.102 -0.468,-1.438 -0.313,-0.343 -0.782,-0.515 -1.407,-0.515 -0.636,0 -1.14,0.187 -1.515,0.562 -0.375,0.367 -0.59,0.828 -0.641,1.391 z"
         style="fill:#000000;fill-opacity:1;fill-rule:nonzero;stroke:none"
         id="path20106" /><path
         d="m 192.105,38.762 h -1.187 v -4.016 c 0,-0.32 -0.023,-0.625 -0.063,-0.906 -0.031,-0.281 -0.093,-0.5 -0.187,-0.656 -0.117,-0.176 -0.273,-0.305 -0.469,-0.391 -0.187,-0.094 -0.445,-0.141 -0.765,-0.141 -0.325,0 -0.664,0.086 -1.016,0.25 -0.356,0.157 -0.695,0.36 -1.016,0.61 v 5.25 h -1.172 v -9.813 h 1.172 v 3.563 c 0.375,-0.313 0.758,-0.551 1.157,-0.719 0.394,-0.176 0.8,-0.266 1.218,-0.266 0.758,0 1.336,0.231 1.735,0.688 0.394,0.461 0.593,1.121 0.593,1.984 z"
         style="fill:#000000;fill-opacity:1;fill-rule:nonzero;stroke:none"
         id="path20108" /><path
         d="m 196.855,36.965 -1.781,4.125 h -0.922 l 1.094,-4.125 z"
         style="fill:#000000;fill-opacity:1;fill-rule:nonzero;stroke:none"
         id="path20110" /><path
         d="m 209.824,38.762 h -6.344 v -1.313 c 0.438,-0.383 0.875,-0.765 1.313,-1.14 0.445,-0.375 0.863,-0.75 1.25,-1.125 0.812,-0.782 1.363,-1.399 1.656,-1.86 0.301,-0.457 0.453,-0.957 0.453,-1.5 0,-0.476 -0.164,-0.851 -0.484,-1.125 -0.324,-0.281 -0.773,-0.422 -1.344,-0.422 -0.386,0 -0.804,0.071 -1.25,0.203 -0.437,0.137 -0.871,0.34 -1.297,0.61 h -0.062 v -1.328 c 0.289,-0.145 0.687,-0.274 1.187,-0.391 0.5,-0.125 0.985,-0.187 1.453,-0.187 0.957,0 1.707,0.234 2.25,0.703 0.551,0.461 0.829,1.086 0.829,1.875 0,0.367 -0.047,0.703 -0.141,1.015 -0.086,0.305 -0.215,0.594 -0.391,0.875 -0.168,0.262 -0.359,0.516 -0.578,0.766 -0.219,0.25 -0.492,0.527 -0.812,0.828 -0.45,0.449 -0.914,0.883 -1.391,1.297 -0.48,0.406 -0.93,0.789 -1.344,1.141 h 5.047 z"
         style="fill:#000000;fill-opacity:1;fill-rule:nonzero;stroke:none"
         id="path20112" /><path
         d="m 218.035,34.074 c 0,1.68 -0.265,2.914 -0.797,3.703 -0.531,0.793 -1.351,1.188 -2.453,1.188 -1.125,0 -1.949,-0.399 -2.469,-1.203 -0.523,-0.801 -0.781,-2.032 -0.781,-3.688 0,-1.664 0.258,-2.894 0.781,-3.687 0.532,-0.801 1.352,-1.203 2.469,-1.203 1.125,0 1.945,0.406 2.469,1.218 0.519,0.813 0.781,2.039 0.781,3.672 z m -1.656,2.86 c 0.144,-0.344 0.242,-0.743 0.297,-1.204 0.051,-0.457 0.078,-1.007 0.078,-1.656 0,-0.644 -0.027,-1.203 -0.078,-1.672 -0.055,-0.468 -0.156,-0.867 -0.313,-1.203 -0.148,-0.32 -0.351,-0.562 -0.609,-0.719 -0.25,-0.164 -0.574,-0.25 -0.969,-0.25 -0.398,0 -0.726,0.086 -0.984,0.25 -0.262,0.157 -0.465,0.403 -0.61,0.735 -0.148,0.312 -0.246,0.719 -0.296,1.219 -0.055,0.5 -0.079,1.046 -0.079,1.64 0,0.656 0.02,1.211 0.063,1.656 0.051,0.438 0.156,0.829 0.312,1.172 0.133,0.336 0.329,0.59 0.579,0.766 0.257,0.168 0.597,0.25 1.015,0.25 0.395,0 0.723,-0.082 0.985,-0.25 0.257,-0.164 0.46,-0.41 0.609,-0.734 z"
         style="fill:#000000;fill-opacity:1;fill-rule:nonzero;stroke:none"
         id="path20114" /><path
         d="m 225.711,38.762 h -5.078 v -0.953 h 1.953 v -6.297 h -1.953 v -0.86 c 0.269,0 0.555,-0.019 0.859,-0.062 0.301,-0.039 0.531,-0.102 0.688,-0.188 0.187,-0.101 0.332,-0.234 0.437,-0.39 0.113,-0.164 0.18,-0.391 0.203,-0.672 h 0.985 v 8.469 h 1.906 z"
         style="fill:#000000;fill-opacity:1;fill-rule:nonzero;stroke:none"
         id="path20116" /><path
         d="m 234.531,36.152 c 0,0.805 -0.32,1.477 -0.953,2.016 -0.625,0.543 -1.418,0.812 -2.375,0.812 -1.023,0 -1.836,-0.257 -2.437,-0.781 -0.606,-0.531 -0.907,-1.207 -0.907,-2.031 0,-0.52 0.149,-0.988 0.453,-1.406 0.301,-0.426 0.727,-0.766 1.282,-1.016 v -0.031 c -0.5,-0.27 -0.875,-0.563 -1.125,-0.875 -0.242,-0.32 -0.36,-0.723 -0.36,-1.203 0,-0.707 0.289,-1.297 0.875,-1.766 0.582,-0.469 1.321,-0.703 2.219,-0.703 0.938,0 1.68,0.227 2.235,0.672 0.562,0.449 0.843,1.023 0.843,1.719 0,0.418 -0.136,0.836 -0.406,1.25 -0.262,0.406 -0.648,0.726 -1.156,0.953 v 0.047 c 0.582,0.25 1.031,0.562 1.343,0.937 0.313,0.367 0.469,0.836 0.469,1.406 z m -1.5,-4.593 c 0,-0.446 -0.172,-0.801 -0.515,-1.063 -0.344,-0.269 -0.789,-0.406 -1.328,-0.406 -0.532,0 -0.969,0.125 -1.313,0.375 -0.336,0.25 -0.5,0.594 -0.5,1.031 0,0.305 0.082,0.563 0.25,0.781 0.176,0.219 0.437,0.414 0.781,0.578 0.156,0.086 0.379,0.188 0.672,0.313 0.289,0.117 0.578,0.215 0.86,0.297 0.414,-0.281 0.703,-0.567 0.859,-0.86 0.156,-0.3 0.234,-0.648 0.234,-1.046 z m 0.203,4.703 c 0,-0.383 -0.089,-0.692 -0.265,-0.922 -0.168,-0.238 -0.496,-0.473 -0.985,-0.703 -0.199,-0.094 -0.418,-0.176 -0.656,-0.25 -0.242,-0.082 -0.555,-0.196 -0.937,-0.344 -0.375,0.211 -0.68,0.492 -0.907,0.844 -0.23,0.343 -0.343,0.742 -0.343,1.187 0,0.574 0.191,1.047 0.578,1.422 0.394,0.367 0.89,0.547 1.484,0.547 0.613,0 1.102,-0.156 1.469,-0.469 0.375,-0.32 0.562,-0.758 0.562,-1.312 z"
         style="fill:#000000;fill-opacity:1;fill-rule:nonzero;stroke:none"
         id="path20118" /><path
         d="m 236.27,34.09 h 3.922 v 1.141 h -3.922 z"
         style="fill:#000000;fill-opacity:1;fill-rule:nonzero;stroke:none"
         id="path20120" /><path
         d="m 248.523,38.762 h -6.343 v -1.313 c 0.437,-0.383 0.875,-0.765 1.312,-1.14 0.446,-0.375 0.863,-0.75 1.25,-1.125 0.813,-0.782 1.363,-1.399 1.656,-1.86 0.301,-0.457 0.454,-0.957 0.454,-1.5 0,-0.476 -0.164,-0.851 -0.485,-1.125 -0.324,-0.281 -0.773,-0.422 -1.344,-0.422 -0.386,0 -0.804,0.071 -1.25,0.203 -0.437,0.137 -0.871,0.34 -1.296,0.61 h -0.063 v -1.328 c 0.289,-0.145 0.688,-0.274 1.188,-0.391 0.5,-0.125 0.984,-0.187 1.453,-0.187 0.957,0 1.707,0.234 2.25,0.703 0.55,0.461 0.828,1.086 0.828,1.875 0,0.367 -0.047,0.703 -0.141,1.015 -0.086,0.305 -0.215,0.594 -0.39,0.875 -0.168,0.262 -0.36,0.516 -0.579,0.766 -0.218,0.25 -0.492,0.527 -0.812,0.828 -0.449,0.449 -0.914,0.883 -1.391,1.297 -0.48,0.406 -0.929,0.789 -1.343,1.141 h 5.046 z"
         style="fill:#000000;fill-opacity:1;fill-rule:nonzero;stroke:none"
         id="path20122" /><path
         d="m 256.734,34.074 c 0,1.68 -0.265,2.914 -0.796,3.703 -0.532,0.793 -1.352,1.188 -2.454,1.188 -1.125,0 -1.949,-0.399 -2.468,-1.203 -0.524,-0.801 -0.782,-2.032 -0.782,-3.688 0,-1.664 0.258,-2.894 0.782,-3.687 0.531,-0.801 1.351,-1.203 2.468,-1.203 1.125,0 1.946,0.406 2.469,1.218 0.52,0.813 0.781,2.039 0.781,3.672 z m -1.656,2.86 c 0.145,-0.344 0.242,-0.743 0.297,-1.204 0.051,-0.457 0.078,-1.007 0.078,-1.656 0,-0.644 -0.027,-1.203 -0.078,-1.672 -0.055,-0.468 -0.156,-0.867 -0.313,-1.203 -0.148,-0.32 -0.351,-0.562 -0.609,-0.719 -0.25,-0.164 -0.574,-0.25 -0.969,-0.25 -0.398,0 -0.726,0.086 -0.984,0.25 -0.262,0.157 -0.465,0.403 -0.609,0.735 -0.149,0.312 -0.246,0.719 -0.297,1.219 -0.055,0.5 -0.078,1.046 -0.078,1.64 0,0.656 0.019,1.211 0.062,1.656 0.051,0.438 0.156,0.829 0.313,1.172 0.132,0.336 0.328,0.59 0.578,0.766 0.258,0.168 0.597,0.25 1.015,0.25 0.395,0 0.723,-0.082 0.985,-0.25 0.258,-0.164 0.461,-0.41 0.609,-0.734 z"
         style="fill:#000000;fill-opacity:1;fill-rule:nonzero;stroke:none"
         id="path20124" /><path
         d="m 264.941,38.762 h -6.343 v -1.313 c 0.437,-0.383 0.875,-0.765 1.312,-1.14 0.445,-0.375 0.863,-0.75 1.25,-1.125 0.813,-0.782 1.363,-1.399 1.656,-1.86 0.301,-0.457 0.454,-0.957 0.454,-1.5 0,-0.476 -0.165,-0.851 -0.485,-1.125 -0.324,-0.281 -0.773,-0.422 -1.344,-0.422 -0.386,0 -0.804,0.071 -1.25,0.203 -0.437,0.137 -0.871,0.34 -1.296,0.61 h -0.063 v -1.328 c 0.289,-0.145 0.688,-0.274 1.188,-0.391 0.5,-0.125 0.984,-0.187 1.453,-0.187 0.957,0 1.707,0.234 2.25,0.703 0.55,0.461 0.828,1.086 0.828,1.875 0,0.367 -0.047,0.703 -0.141,1.015 -0.086,0.305 -0.215,0.594 -0.39,0.875 -0.168,0.262 -0.36,0.516 -0.579,0.766 -0.218,0.25 -0.492,0.527 -0.812,0.828 -0.449,0.449 -0.914,0.883 -1.391,1.297 -0.48,0.406 -0.929,0.789 -1.343,1.141 h 5.046 z"
         style="fill:#000000;fill-opacity:1;fill-rule:nonzero;stroke:none"
         id="path20126" /><path
         d="m 272.621,38.762 h -5.078 v -0.953 h 1.953 v -6.297 h -1.953 v -0.86 c 0.269,0 0.555,-0.019 0.859,-0.062 0.301,-0.039 0.532,-0.102 0.688,-0.188 0.187,-0.101 0.332,-0.234 0.437,-0.39 0.114,-0.164 0.18,-0.391 0.203,-0.672 h 0.985 v 8.469 h 1.906 z"
         style="fill:#000000;fill-opacity:1;fill-rule:nonzero;stroke:none"
         id="path20128" /><path
         d="m 25.512,56.691 c -6.282,0 -11.34,5.059 -11.34,11.34 v 34.016 c 0,6.281 5.058,11.34 11.34,11.34 h 119.054 c 6.282,0 11.34,-5.059 11.34,-11.34 V 68.031 c 0,-6.281 -5.058,-11.34 -11.34,-11.34 z m 2.836,9.922 c 2.347,0 4.25,1.907 4.25,4.254 0,2.348 -1.903,4.25 -4.25,4.254 -2.348,0 -4.254,-1.906 -4.254,-4.254 0,-2.347 1.906,-4.254 4.254,-4.254 z m 28.343,0 c 2.352,0 4.254,1.907 4.254,4.254 0,2.348 -1.902,4.254 -4.254,4.254 -2.347,0 -4.25,-1.906 -4.25,-4.254 0,-2.347 1.903,-4.254 4.25,-4.254 z m 28.348,0 c 2.348,0 4.254,1.907 4.254,4.254 0,2.348 -1.906,4.254 -4.254,4.254 -2.348,0 -4.254,-1.906 -4.254,-4.254 0,-2.347 1.906,-4.254 4.254,-4.254 z m 28.348,0 c 2.347,0 4.25,1.907 4.25,4.254 0,2.348 -1.903,4.254 -4.25,4.254 -2.348,-0.004 -4.254,-1.906 -4.254,-4.254 0,-2.347 1.906,-4.254 4.254,-4.254 z m 28.343,0 c 2.352,0 4.254,1.907 4.254,4.254 0,2.348 -1.902,4.254 -4.254,4.254 -2.347,-0.004 -4.25,-1.906 -4.25,-4.254 0,-2.347 1.903,-4.254 4.25,-4.254 z M 28.348,94.961 c 2.347,0 4.25,1.902 4.25,4.254 0,2.347 -1.903,4.25 -4.25,4.25 -2.348,0 -4.254,-1.903 -4.254,-4.25 0,-2.352 1.906,-4.254 4.254,-4.254 z m 28.343,0 c 2.352,0 4.254,1.902 4.254,4.254 0,2.347 -1.902,4.25 -4.254,4.25 -2.347,0 -4.25,-1.903 -4.25,-4.25 0,-2.352 1.903,-4.254 4.25,-4.254 z m 28.348,0 c 2.348,0 4.254,1.902 4.254,4.254 0,2.347 -1.906,4.25 -4.254,4.25 -2.348,0 -4.254,-1.903 -4.254,-4.25 0,-2.352 1.906,-4.254 4.254,-4.254 z m 28.348,0 c 2.347,0 4.25,1.902 4.25,4.254 0,2.347 -1.903,4.25 -4.25,4.25 -2.348,0 -4.254,-1.903 -4.254,-4.25 0,-2.352 1.906,-4.254 4.254,-4.254 z m 28.343,0 c 2.352,0 4.254,1.902 4.254,4.254 0,2.347 -1.902,4.25 -4.254,4.25 -2.347,0 -4.25,-1.903 -4.25,-4.25 0,-2.352 1.903,-4.254 4.25,-4.254 z"
         style="fill:#b3b3b3;fill-opacity:1;fill-rule:nonzero;stroke:none"
         id="path20130" /></g></g></svg>
