<svg xmlns:inkscape="http://www.inkscape.org/namespaces/inkscape" xmlns:sodipodi="http://sodipodi.sourceforge.net/DTD/sodipodi-0.dtd" xmlns:xlink="http://www.w3.org/1999/xlink" xmlns="http://www.w3.org/2000/svg" xmlns:svg="http://www.w3.org/2000/svg" xmlns:rdf="http://www.w3.org/1999/02/22-rdf-syntax-ns#" xmlns:cc="http://creativecommons.org/ns#" xmlns:dc="http://purl.org/dc/elements/1.1/" sodipodi:docname="2D_parts.svg" inkscape:version="1.1 (c68e22c387, 2021-05-23)" id="svg4164" version="1.1" viewBox="0 0 304.8 304.8" height="304.79999mm" width="304.79999mm">
  <defs id="defs4158"/>
  <sodipodi:namedview inkscape:snap-nodes="false" inkscape:document-rotation="0" inkscape:object-nodes="true" inkscape:snap-bbox-midpoints="true" inkscape:snap-bbox="true" inkscape:snap-midpoints="false" inkscape:snap-intersection-paths="true" inkscape:object-paths="true" inkscape:snap-others="true" inkscape:snap-center="true" inkscape:snap-global="true" inkscape:snap-smooth-nodes="true" inkscape:snap-grids="true" inkscape:guide-bbox="true" showguides="false" inkscape:measure-end="1152.76,1135.75" inkscape:measure-start="1152.76,1192.63" inkscape:snap-object-midpoints="true" inkscape:window-maximized="1" inkscape:window-y="-8" inkscape:window-x="-8" inkscape:window-height="705" inkscape:window-width="1366" showgrid="false" inkscape:current-layer="layer12" inkscape:document-units="mm" inkscape:cy="478.64787" inkscape:cx="518.05229" inkscape:zoom="0.43142363" inkscape:pageshadow="2" inkscape:pageopacity="0.0" borderopacity="1.0" bordercolor="#666666" pagecolor="#ffffff" id="base" inkscape:bbox-paths="true" inkscape:bbox-nodes="true" inkscape:snap-bbox-edge-midpoints="true" inkscape:pagecheckerboard="0" units="mm">
    <inkscape:grid empspacing="10" spacingy="0.99999999" spacingx="0.99999999" units="mm" id="grid4709" type="xygrid"/>
  </sodipodi:namedview>
  <metadata id="metadata4161">
    <rdf:RDF>
      <cc:Work rdf:about="">
        <dc:format>image/svg+xml</dc:format>
        <dc:type rdf:resource="http://purl.org/dc/dcmitype/StillImage"/>
      </cc:Work>
    </rdf:RDF>
  </metadata>
  <g inkscape:groupmode="layer" id="layer13" inkscape:label="connector_2x5" style="display:inline">
    <path id="rect2649-6" style="display:inline;fill:#b3b3b3;stroke:none;stroke-width:20;stroke-linecap:round;stroke-linejoin:round;stroke-miterlimit:4;stroke-dasharray:none" d="m 17.02357,15.144303 c -2.215992,0 -4.000261,1.78427 -4.000261,4.00027 v 11.9998 c 0,2.21599 1.784269,4.00026 4.000261,4.00026 h 42.000039 c 2.215991,0 3.999758,-1.78427 3.999758,-4.00026 v -11.9998 c 0,-2.216 -1.783768,-4.00027 -3.999758,-4.00027 z m 0.999941,3.50004 a 1.4999999,1.4999999 0 0 1 1.499659,1.50017 1.4999999,1.4999999 0 0 1 -1.499659,1.50018 1.4999999,1.4999999 0 0 1 -1.500163,-1.50018 1.4999999,1.4999999 0 0 1 1.500163,-1.50017 z m 9.999926,0 a 1.4999999,1.4999999 0 0 1 1.500161,1.50017 1.4999999,1.4999999 0 0 1 -1.500161,1.50018 1.4999999,1.4999999 0 0 1 -1.500187,-1.50018 1.4999999,1.4999999 0 0 1 1.500187,-1.50017 z m 9.999902,0 a 1.4999999,1.4999999 0 0 1 1.50016,1.50017 1.4999999,1.4999999 0 0 1 -1.50016,1.50018 1.4999999,1.4999999 0 0 1 -1.500161,-1.50018 1.4999999,1.4999999 0 0 1 1.500161,-1.50017 z m 9.9999,0 a 1.4999999,1.4999999 0 0 1 1.500161,1.50017 1.4999999,1.4999999 0 0 1 -1.500161,1.50018 1.4999999,1.4999999 0 0 1 -1.499658,-1.50018 1.4999999,1.4999999 0 0 1 1.499658,-1.50017 z m 9.999901,0 a 1.4999999,1.4999999 0 0 1 1.500161,1.50017 1.4999999,1.4999999 0 0 1 -1.500161,1.50018 1.4999999,1.4999999 0 0 1 -1.499659,-1.50018 1.4999999,1.4999999 0 0 1 1.499659,-1.50017 z m -39.999629,9.99991 a 1.4999999,1.4999999 0 0 1 1.499659,1.50018 1.4999999,1.4999999 0 0 1 -1.499659,1.50016 1.4999999,1.4999999 0 0 1 -1.500162,-1.50016 1.4999999,1.4999999 0 0 1 1.500162,-1.50018 z m 9.999927,0 a 1.4999999,1.4999999 0 0 1 1.500161,1.50018 1.4999999,1.4999999 0 0 1 -1.500161,1.50016 1.4999999,1.4999999 0 0 1 -1.500187,-1.50016 1.4999999,1.4999999 0 0 1 1.500187,-1.50018 z m 9.999901,0 a 1.4999999,1.4999999 0 0 1 1.500161,1.50018 1.4999999,1.4999999 0 0 1 -1.500161,1.50016 1.4999999,1.4999999 0 0 1 -1.500161,-1.50016 1.4999999,1.4999999 0 0 1 1.500161,-1.50018 z m 9.9999,0 a 1.4999999,1.4999999 0 0 1 1.500161,1.50018 1.4999999,1.4999999 0 0 1 -1.500161,1.50016 1.4999999,1.4999999 0 0 1 -1.499658,-1.50016 1.4999999,1.4999999 0 0 1 1.499658,-1.50018 z m 9.999901,0 a 1.4999999,1.4999999 0 0 1 1.500161,1.50018 1.4999999,1.4999999 0 0 1 -1.500161,1.50016 1.4999999,1.4999999 0 0 1 -1.499659,-1.50016 1.4999999,1.4999999 0 0 1 1.499659,-1.50018 z"/>
  </g>
  </svg>