<svg xmlns:inkscape="http://www.inkscape.org/namespaces/inkscape" xmlns:sodipodi="http://sodipodi.sourceforge.net/DTD/sodipodi-0.dtd" xmlns:xlink="http://www.w3.org/1999/xlink" xmlns="http://www.w3.org/2000/svg" xmlns:svg="http://www.w3.org/2000/svg" xmlns:rdf="http://www.w3.org/1999/02/22-rdf-syntax-ns#" xmlns:cc="http://creativecommons.org/ns#" xmlns:dc="http://purl.org/dc/elements/1.1/" sodipodi:docname="2D_parts.svg" inkscape:version="1.1 (c68e22c387, 2021-05-23)" id="svg4164" version="1.1" viewBox="0 0 304.8 304.8" height="304.79999mm" width="304.79999mm">
  <defs id="defs4158"/>
  <sodipodi:namedview inkscape:snap-nodes="false" inkscape:document-rotation="0" inkscape:object-nodes="true" inkscape:snap-bbox-midpoints="true" inkscape:snap-bbox="true" inkscape:snap-midpoints="false" inkscape:snap-intersection-paths="true" inkscape:object-paths="true" inkscape:snap-others="true" inkscape:snap-center="true" inkscape:snap-global="true" inkscape:snap-smooth-nodes="true" inkscape:snap-grids="true" inkscape:guide-bbox="true" showguides="false" inkscape:measure-end="1152.76,1135.75" inkscape:measure-start="1152.76,1192.63" inkscape:snap-object-midpoints="true" inkscape:window-maximized="1" inkscape:window-y="-8" inkscape:window-x="-8" inkscape:window-height="705" inkscape:window-width="1366" showgrid="false" inkscape:current-layer="layer12" inkscape:document-units="mm" inkscape:cy="-5.736528" inkscape:cx="917.02498" inkscape:zoom="0.61012515" inkscape:pageshadow="2" inkscape:pageopacity="0.0" borderopacity="1.0" bordercolor="#666666" pagecolor="#ffffff" id="base" inkscape:bbox-paths="true" inkscape:bbox-nodes="true" inkscape:snap-bbox-edge-midpoints="true" inkscape:pagecheckerboard="0" units="mm">
    <inkscape:grid empspacing="10" spacingy="0.99999999" spacingx="0.99999999" units="mm" id="grid4709" type="xygrid"/>
  </sodipodi:namedview>
  <metadata id="metadata4161">
    <rdf:RDF>
      <cc:Work rdf:about="">
        <dc:format>image/svg+xml</dc:format>
        <dc:type rdf:resource="http://purl.org/dc/dcmitype/StillImage"/>
      </cc:Work>
    </rdf:RDF>
  </metadata>
  <g inkscape:groupmode="layer" id="layer15" inkscape:label="connector_arm_180mm" style="display:none">
    <path id="path18029-1" style="color:#000000;display:inline;fill:#cccccc;stroke-width:1;stroke-linecap:round;stroke-linejoin:round;-inkscape-stroke:none" d="m 30.203142,13.730312 a 20,20 0 0 0 -20.000331,19.9998 20,20 0 0 0 20.000331,20.00034 H 210.203 a 20,20 0 0 0 19.99981,-20.00034 20,20 0 0 0 -19.99981,-19.9998 z m 0,3.50004 a 1.4999999,1.4999999 0 0 1 1.49965,1.50016 1.4999999,1.4999999 0 0 1 -1.49965,1.49965 1.4999999,1.4999999 0 0 1 -1.500166,-1.49965 1.4999999,1.4999999 0 0 1 1.500166,-1.50016 z m 179.999858,0 a 1.4999999,1.4999999 0 0 1 1.49966,1.50016 1.4999999,1.4999999 0 0 1 -1.49966,1.49965 1.4999999,1.4999999 0 0 1 -1.50016,-1.49965 1.4999999,1.4999999 0 0 1 1.50016,-1.50016 z m -190.662773,4.39456 a 1.4999999,1.4999999 0 0 1 1.116728,0.43822 1.4999999,1.4999999 0 0 1 0,2.12132 1.4999999,1.4999999 0 0 1 -2.121318,0 1.4999999,1.4999999 0 0 1 0,-2.12132 1.4999999,1.4999999 0 0 1 1.00459,-0.43822 z m 21.213174,0 a 1.4999999,1.4999999 0 0 1 1.11673,0.43822 1.4999999,1.4999999 0 0 1 0,2.12132 1.4999999,1.4999999 0 0 1 -2.12132,0 1.4999999,1.4999999 0 0 1 0,-2.12132 1.4999999,1.4999999 0 0 1 1.00459,-0.43822 z m 158.786679,0 a 1.4999999,1.4999999 0 0 1 1.11673,0.43822 1.4999999,1.4999999 0 0 1 0,2.12132 1.4999999,1.4999999 0 0 1 -2.12131,0 1.4999999,1.4999999 0 0 1 0,-2.12132 1.4999999,1.4999999 0 0 1 1.00458,-0.43822 z m 21.21318,0 a 1.4999999,1.4999999 0 0 1 1.11673,0.43822 1.4999999,1.4999999 0 0 1 0,2.12132 1.4999999,1.4999999 0 0 1 -2.12132,0 1.4999999,1.4999999 0 0 1 0,-2.12132 1.4999999,1.4999999 0 0 1 1.00459,-0.43822 z m -190.550118,0.60513 a 1.4999999,1.4999999 0 0 1 1.49965,1.50017 1.4999999,1.4999999 0 0 1 -1.49965,1.50017 1.4999999,1.4999999 0 0 1 -1.500166,-1.50017 1.4999999,1.4999999 0 0 1 1.500166,-1.50017 z m 19.999809,0 a 1.4999999,1.4999999 0 0 1 1.50017,1.50017 1.4999999,1.4999999 0 0 1 -1.50017,1.50017 1.4999999,1.4999999 0 0 1 -1.50016,-1.50017 1.4999999,1.4999999 0 0 1 1.50016,-1.50017 z m 9.99991,0 a 1.4999999,1.4999999 0 0 1 1.50017,1.50017 1.4999999,1.4999999 0 0 1 -1.50017,1.50017 1.4999999,1.4999999 0 0 1 -1.50017,-1.50017 1.4999999,1.4999999 0 0 1 1.50017,-1.50017 z m 9.99991,0 a 1.4999999,1.4999999 0 0 1 1.50016,1.50017 1.4999999,1.4999999 0 0 1 -1.50016,1.50017 1.4999999,1.4999999 0 0 1 -1.49965,-1.50017 1.4999999,1.4999999 0 0 1 1.49965,-1.50017 z m 9.9999,0 a 1.4999999,1.4999999 0 0 1 1.50017,1.50017 1.4999999,1.4999999 0 0 1 -1.50017,1.50017 1.4999999,1.4999999 0 0 1 -1.49965,-1.50017 1.4999999,1.4999999 0 0 1 1.49965,-1.50017 z m 10.00042,0 a 1.4999999,1.4999999 0 0 1 1.49965,1.50017 1.4999999,1.4999999 0 0 1 -1.49965,1.50017 1.4999999,1.4999999 0 0 1 -1.50016,-1.50017 1.4999999,1.4999999 0 0 1 1.50016,-1.50017 z m 9.999909,0 a 1.4999999,1.4999999 0 0 1 1.49965,1.50017 1.4999999,1.4999999 0 0 1 -1.49965,1.50017 1.4999999,1.4999999 0 0 1 -1.500168,-1.50017 1.4999999,1.4999999 0 0 1 1.500168,-1.50017 z m 9.9999,0 a 1.4999999,1.4999999 0 0 1 1.50017,1.50017 1.4999999,1.4999999 0 0 1 -1.50017,1.50017 1.4999999,1.4999999 0 0 1 -1.50017,-1.50017 1.4999999,1.4999999 0 0 1 1.50017,-1.50017 z m 9.99991,0 a 1.4999999,1.4999999 0 0 1 1.50017,1.50017 1.4999999,1.4999999 0 0 1 -1.50017,1.50017 1.4999999,1.4999999 0 0 1 -1.50017,-1.50017 1.4999999,1.4999999 0 0 1 1.50017,-1.50017 z m 9.99991,0 a 1.4999999,1.4999999 0 0 1 1.50016,1.50017 1.4999999,1.4999999 0 0 1 -1.50016,1.50017 1.4999999,1.4999999 0 0 1 -1.49966,-1.50017 1.4999999,1.4999999 0 0 1 1.49966,-1.50017 z m 10.00042,0 a 1.4999999,1.4999999 0 0 1 1.49965,1.50017 1.4999999,1.4999999 0 0 1 -1.49965,1.50017 1.4999999,1.4999999 0 0 1 -1.50017,-1.50017 1.4999999,1.4999999 0 0 1 1.50017,-1.50017 z m 9.99991,0 a 1.4999999,1.4999999 0 0 1 1.49965,1.50017 1.4999999,1.4999999 0 0 1 -1.49965,1.50017 1.4999999,1.4999999 0 0 1 -1.50017,-1.50017 1.4999999,1.4999999 0 0 1 1.50017,-1.50017 z m 9.9999,0 a 1.4999999,1.4999999 0 0 1 1.50017,1.50017 1.4999999,1.4999999 0 0 1 -1.50017,1.50017 1.4999999,1.4999999 0 0 1 -1.50017,-1.50017 1.4999999,1.4999999 0 0 1 1.50017,-1.50017 z m 9.99991,0 a 1.4999999,1.4999999 0 0 1 1.50016,1.50017 1.4999999,1.4999999 0 0 1 -1.50016,1.50017 1.4999999,1.4999999 0 0 1 -1.50017,-1.50017 1.4999999,1.4999999 0 0 1 1.50017,-1.50017 z m 9.9999,0 a 1.4999999,1.4999999 0 0 1 1.50017,1.50017 1.4999999,1.4999999 0 0 1 -1.50017,1.50017 1.4999999,1.4999999 0 0 1 -1.49965,-1.50017 1.4999999,1.4999999 0 0 1 1.49965,-1.50017 z m 9.99991,0 a 1.4999999,1.4999999 0 0 1 1.50017,1.50017 1.4999999,1.4999999 0 0 1 -1.50017,1.50017 1.4999999,1.4999999 0 0 1 -1.49965,-1.50017 1.4999999,1.4999999 0 0 1 1.49965,-1.50017 z m 20.00033,0 a 1.4999999,1.4999999 0 0 1 1.49965,1.50017 1.4999999,1.4999999 0 0 1 -1.49965,1.50017 1.4999999,1.4999999 0 0 1 -1.50017,-1.50017 1.4999999,1.4999999 0 0 1 1.50017,-1.50017 z m -187.127072,2.93006 a 1.4999999,1.4999999 0 0 1 1.116728,0.43821 1.4999999,1.4999999 0 0 1 0,2.12132 1.4999999,1.4999999 0 0 1 -2.121318,0 1.4999999,1.4999999 0 0 1 0,-2.12132 1.4999999,1.4999999 0 0 1 1.00459,-0.43821 z m 14.141773,0 a 1.4999999,1.4999999 0 0 1 1.11673,0.43821 1.4999999,1.4999999 0 0 1 0,2.12132 1.4999999,1.4999999 0 0 1 -2.12132,0 1.4999999,1.4999999 0 0 1 0,-2.12132 1.4999999,1.4999999 0 0 1 1.00459,-0.43821 z m 165.858089,0 a 1.4999999,1.4999999 0 0 1 1.11672,0.43821 1.4999999,1.4999999 0 0 1 0,2.12132 1.4999999,1.4999999 0 0 1 -2.12131,0 1.4999999,1.4999999 0 0 1 0,-2.12132 1.4999999,1.4999999 0 0 1 1.00459,-0.43821 z m 14.14228,0 a 1.4999999,1.4999999 0 0 1 1.11673,0.43873 1.4999999,1.4999999 0 0 1 0,2.12132 1.4999999,1.4999999 0 0 1 -2.12131,0 1.4999999,1.4999999 0 0 1 0,-2.12132 1.4999999,1.4999999 0 0 1 1.00458,-0.43873 z m -187.014928,2.07015 a 6.4999999,6.4999999 0 0 1 6.499859,6.49986 6.4999999,6.4999999 0 0 1 -6.499859,6.50038 6.4999999,6.4999999 0 0 1 -6.500379,-6.50038 6.4999999,6.4999999 0 0 1 6.500379,-6.49986 z m 179.999858,0 a 6.4999999,6.4999999 0 0 1 6.49986,6.49986 6.4999999,6.4999999 0 0 1 -6.49986,6.50038 6.4999999,6.4999999 0 0 1 -6.49986,-6.50038 6.4999999,6.4999999 0 0 1 6.49986,-6.49986 z m -194.999976,5.00021 a 1.4999999,1.4999999 0 0 1 1.49965,1.49965 1.4999999,1.4999999 0 0 1 -1.49965,1.50017 1.4999999,1.4999999 0 0 1 -1.500167,-1.50017 1.4999999,1.4999999 0 0 1 1.500167,-1.49965 z m 4.999695,0 a 1.4999999,1.4999999 0 0 1 1.500166,1.49965 1.4999999,1.4999999 0 0 1 -1.500166,1.50017 1.4999999,1.4999999 0 0 1 -1.49965,-1.50017 1.4999999,1.4999999 0 0 1 1.49965,-1.49965 z m 20.000332,0 a 1.4999999,1.4999999 0 0 1 1.49965,1.49965 1.4999999,1.4999999 0 0 1 -1.49965,1.50017 1.4999999,1.4999999 0 0 1 -1.50017,-1.50017 1.4999999,1.4999999 0 0 1 1.50017,-1.49965 z m 4.99969,0 a 1.4999999,1.4999999 0 0 1 1.50017,1.49965 1.4999999,1.4999999 0 0 1 -1.50017,1.50017 1.4999999,1.4999999 0 0 1 -1.49965,-1.50017 1.4999999,1.4999999 0 0 1 1.49965,-1.49965 z m 5.00021,0 a 1.4999999,1.4999999 0 0 1 1.50017,1.49965 1.4999999,1.4999999 0 0 1 -1.50017,1.50017 1.4999999,1.4999999 0 0 1 -1.50016,-1.50017 1.4999999,1.4999999 0 0 1 1.50016,-1.49965 z m 9.99991,0 a 1.4999999,1.4999999 0 0 1 1.50017,1.49965 1.4999999,1.4999999 0 0 1 -1.50017,1.50017 1.4999999,1.4999999 0 0 1 -1.50017,-1.50017 1.4999999,1.4999999 0 0 1 1.50017,-1.49965 z m 9.99991,0 a 1.4999999,1.4999999 0 0 1 1.50016,1.49965 1.4999999,1.4999999 0 0 1 -1.50016,1.50017 1.4999999,1.4999999 0 0 1 -1.49965,-1.50017 1.4999999,1.4999999 0 0 1 1.49965,-1.49965 z m 9.9999,0 a 1.4999999,1.4999999 0 0 1 1.50017,1.49965 1.4999999,1.4999999 0 0 1 -1.50017,1.50017 1.4999999,1.4999999 0 0 1 -1.49965,-1.50017 1.4999999,1.4999999 0 0 1 1.49965,-1.49965 z m 10.00042,0 a 1.4999999,1.4999999 0 0 1 1.49965,1.49965 1.4999999,1.4999999 0 0 1 -1.49965,1.50017 1.4999999,1.4999999 0 0 1 -1.50016,-1.50017 1.4999999,1.4999999 0 0 1 1.50016,-1.49965 z m 9.999909,0 a 1.4999999,1.4999999 0 0 1 1.49965,1.49965 1.4999999,1.4999999 0 0 1 -1.49965,1.50017 1.4999999,1.4999999 0 0 1 -1.500168,-1.50017 1.4999999,1.4999999 0 0 1 1.500168,-1.49965 z m 9.9999,0 a 1.4999999,1.4999999 0 0 1 1.50017,1.49965 1.4999999,1.4999999 0 0 1 -1.50017,1.50017 1.4999999,1.4999999 0 0 1 -1.50017,-1.50017 1.4999999,1.4999999 0 0 1 1.50017,-1.49965 z m 9.99991,0 a 1.4999999,1.4999999 0 0 1 1.50017,1.49965 1.4999999,1.4999999 0 0 1 -1.50017,1.50017 1.4999999,1.4999999 0 0 1 -1.50017,-1.50017 1.4999999,1.4999999 0 0 1 1.50017,-1.49965 z m 9.99991,0 a 1.4999999,1.4999999 0 0 1 1.50016,1.49965 1.4999999,1.4999999 0 0 1 -1.50016,1.50017 1.4999999,1.4999999 0 0 1 -1.49966,-1.50017 1.4999999,1.4999999 0 0 1 1.49966,-1.49965 z m 10.00042,0 a 1.4999999,1.4999999 0 0 1 1.49965,1.49965 1.4999999,1.4999999 0 0 1 -1.49965,1.50017 1.4999999,1.4999999 0 0 1 -1.50017,-1.50017 1.4999999,1.4999999 0 0 1 1.50017,-1.49965 z m 9.99991,0 a 1.4999999,1.4999999 0 0 1 1.49965,1.49965 1.4999999,1.4999999 0 0 1 -1.49965,1.50017 1.4999999,1.4999999 0 0 1 -1.50017,-1.50017 1.4999999,1.4999999 0 0 1 1.50017,-1.49965 z m 9.9999,0 a 1.4999999,1.4999999 0 0 1 1.50017,1.49965 1.4999999,1.4999999 0 0 1 -1.50017,1.50017 1.4999999,1.4999999 0 0 1 -1.50017,-1.50017 1.4999999,1.4999999 0 0 1 1.50017,-1.49965 z m 9.99991,0 a 1.4999999,1.4999999 0 0 1 1.50016,1.49965 1.4999999,1.4999999 0 0 1 -1.50016,1.50017 1.4999999,1.4999999 0 0 1 -1.50017,-1.50017 1.4999999,1.4999999 0 0 1 1.50017,-1.49965 z m 9.9999,0 a 1.4999999,1.4999999 0 0 1 1.50017,1.49965 1.4999999,1.4999999 0 0 1 -1.50017,1.50017 1.4999999,1.4999999 0 0 1 -1.49965,-1.50017 1.4999999,1.4999999 0 0 1 1.49965,-1.49965 z m 9.99991,0 a 1.4999999,1.4999999 0 0 1 1.50017,1.49965 1.4999999,1.4999999 0 0 1 -1.50017,1.50017 1.4999999,1.4999999 0 0 1 -1.49965,-1.50017 1.4999999,1.4999999 0 0 1 1.49965,-1.49965 z m 5.00021,0 a 1.4999999,1.4999999 0 0 1 1.50017,1.49965 1.4999999,1.4999999 0 0 1 -1.50017,1.50017 1.4999999,1.4999999 0 0 1 -1.50017,-1.50017 1.4999999,1.4999999 0 0 1 1.50017,-1.49965 z m 5.00021,0 a 1.4999999,1.4999999 0 0 1 1.49965,1.49965 1.4999999,1.4999999 0 0 1 -1.49965,1.50017 1.4999999,1.4999999 0 0 1 -1.50016,-1.50017 1.4999999,1.4999999 0 0 1 1.50016,-1.49965 z m 19.99981,0 a 1.4999999,1.4999999 0 0 1 1.50017,1.49965 1.4999999,1.4999999 0 0 1 -1.50017,1.50017 1.4999999,1.4999999 0 0 1 -1.50016,-1.50017 1.4999999,1.4999999 0 0 1 1.50016,-1.49965 z m 5.00022,0 a 1.4999999,1.4999999 0 0 1 1.49965,1.49965 1.4999999,1.4999999 0 0 1 -1.49965,1.50017 1.4999999,1.4999999 0 0 1 -1.50017,-1.50017 1.4999999,1.4999999 0 0 1 1.50017,-1.49965 z m -202.127192,7.07192 a 1.4999999,1.4999999 0 0 1 1.116728,0.43822 1.4999999,1.4999999 0 0 1 0,2.12132 1.4999999,1.4999999 0 0 1 -2.121318,0 1.4999999,1.4999999 0 0 1 0,-2.12132 1.4999999,1.4999999 0 0 1 1.00459,-0.43822 z m 14.141773,0 a 1.4999999,1.4999999 0 0 1 1.11673,0.43822 1.4999999,1.4999999 0 0 1 0,2.12132 1.4999999,1.4999999 0 0 1 -2.12132,0 1.4999999,1.4999999 0 0 1 0,-2.12132 1.4999999,1.4999999 0 0 1 1.00459,-0.43822 z m 165.858089,0 a 1.4999999,1.4999999 0 0 1 1.11672,0.43822 1.4999999,1.4999999 0 0 1 0,2.12132 1.4999999,1.4999999 0 0 1 -2.12131,0 1.4999999,1.4999999 0 0 1 0,-2.12132 1.4999999,1.4999999 0 0 1 1.00459,-0.43822 z m 14.14228,0 a 1.4999999,1.4999999 0 0 1 1.11673,0.43822 1.4999999,1.4999999 0 0 1 0,2.12132 1.4999999,1.4999999 0 0 1 -2.12131,0 1.4999999,1.4999999 0 0 1 0,-2.12132 1.4999999,1.4999999 0 0 1 1.00458,-0.43822 z m -187.014928,2.92799 a 1.4999999,1.4999999 0 0 1 1.49965,1.50017 1.4999999,1.4999999 0 0 1 -1.49965,1.49965 1.4999999,1.4999999 0 0 1 -1.500166,-1.49965 1.4999999,1.4999999 0 0 1 1.500166,-1.50017 z m 19.999809,0 a 1.4999999,1.4999999 0 0 1 1.50017,1.50017 1.4999999,1.4999999 0 0 1 -1.50017,1.49965 1.4999999,1.4999999 0 0 1 -1.50016,-1.49965 1.4999999,1.4999999 0 0 1 1.50016,-1.50017 z m 9.99991,0 a 1.4999999,1.4999999 0 0 1 1.50017,1.50017 1.4999999,1.4999999 0 0 1 -1.50017,1.49965 1.4999999,1.4999999 0 0 1 -1.50017,-1.49965 1.4999999,1.4999999 0 0 1 1.50017,-1.50017 z m 9.99991,0 a 1.4999999,1.4999999 0 0 1 1.50016,1.50017 1.4999999,1.4999999 0 0 1 -1.50016,1.49965 1.4999999,1.4999999 0 0 1 -1.49965,-1.49965 1.4999999,1.4999999 0 0 1 1.49965,-1.50017 z m 9.9999,0 a 1.4999999,1.4999999 0 0 1 1.50017,1.50017 1.4999999,1.4999999 0 0 1 -1.50017,1.49965 1.4999999,1.4999999 0 0 1 -1.49965,-1.49965 1.4999999,1.4999999 0 0 1 1.49965,-1.50017 z m 10.00042,0 a 1.4999999,1.4999999 0 0 1 1.49965,1.50017 1.4999999,1.4999999 0 0 1 -1.49965,1.49965 1.4999999,1.4999999 0 0 1 -1.50016,-1.49965 1.4999999,1.4999999 0 0 1 1.50016,-1.50017 z m 9.999909,0 a 1.4999999,1.4999999 0 0 1 1.49965,1.50017 1.4999999,1.4999999 0 0 1 -1.49965,1.49965 1.4999999,1.4999999 0 0 1 -1.500168,-1.49965 1.4999999,1.4999999 0 0 1 1.500168,-1.50017 z m 9.9999,0 a 1.4999999,1.4999999 0 0 1 1.50017,1.50017 1.4999999,1.4999999 0 0 1 -1.50017,1.49965 1.4999999,1.4999999 0 0 1 -1.50017,-1.49965 1.4999999,1.4999999 0 0 1 1.50017,-1.50017 z m 9.99991,0 a 1.4999999,1.4999999 0 0 1 1.50017,1.50017 1.4999999,1.4999999 0 0 1 -1.50017,1.49965 1.4999999,1.4999999 0 0 1 -1.50017,-1.49965 1.4999999,1.4999999 0 0 1 1.50017,-1.50017 z m 9.99991,0 a 1.4999999,1.4999999 0 0 1 1.50016,1.50017 1.4999999,1.4999999 0 0 1 -1.50016,1.49965 1.4999999,1.4999999 0 0 1 -1.49966,-1.49965 1.4999999,1.4999999 0 0 1 1.49966,-1.50017 z m 10.00042,0 a 1.4999999,1.4999999 0 0 1 1.49965,1.50017 1.4999999,1.4999999 0 0 1 -1.49965,1.49965 1.4999999,1.4999999 0 0 1 -1.50017,-1.49965 1.4999999,1.4999999 0 0 1 1.50017,-1.50017 z m 9.99991,0 a 1.4999999,1.4999999 0 0 1 1.49965,1.50017 1.4999999,1.4999999 0 0 1 -1.49965,1.49965 1.4999999,1.4999999 0 0 1 -1.50017,-1.49965 1.4999999,1.4999999 0 0 1 1.50017,-1.50017 z m 9.9999,0 a 1.4999999,1.4999999 0 0 1 1.50017,1.50017 1.4999999,1.4999999 0 0 1 -1.50017,1.49965 1.4999999,1.4999999 0 0 1 -1.50017,-1.49965 1.4999999,1.4999999 0 0 1 1.50017,-1.50017 z m 9.99991,0 a 1.4999999,1.4999999 0 0 1 1.50016,1.50017 1.4999999,1.4999999 0 0 1 -1.50016,1.49965 1.4999999,1.4999999 0 0 1 -1.50017,-1.49965 1.4999999,1.4999999 0 0 1 1.50017,-1.50017 z m 9.9999,0 a 1.4999999,1.4999999 0 0 1 1.50017,1.50017 1.4999999,1.4999999 0 0 1 -1.50017,1.49965 1.4999999,1.4999999 0 0 1 -1.49965,-1.49965 1.4999999,1.4999999 0 0 1 1.49965,-1.50017 z m 9.99991,0 a 1.4999999,1.4999999 0 0 1 1.50017,1.50017 1.4999999,1.4999999 0 0 1 -1.50017,1.49965 1.4999999,1.4999999 0 0 1 -1.49965,-1.49965 1.4999999,1.4999999 0 0 1 1.49965,-1.50017 z m 20.00033,0 a 1.4999999,1.4999999 0 0 1 1.49965,1.50017 1.4999999,1.4999999 0 0 1 -1.49965,1.49965 1.4999999,1.4999999 0 0 1 -1.50017,-1.49965 1.4999999,1.4999999 0 0 1 1.50017,-1.50017 z m -190.662773,0.60772 a 1.4999999,1.4999999 0 0 1 1.116728,0.43821 1.4999999,1.4999999 0 0 1 0,2.12132 1.4999999,1.4999999 0 0 1 -2.121318,0 1.4999999,1.4999999 0 0 1 0,-2.12132 1.4999999,1.4999999 0 0 1 1.00459,-0.43821 z m 21.213174,0 a 1.4999999,1.4999999 0 0 1 1.11673,0.43821 1.4999999,1.4999999 0 0 1 0,2.12132 1.4999999,1.4999999 0 0 1 -2.12132,0 1.4999999,1.4999999 0 0 1 0,-2.12132 1.4999999,1.4999999 0 0 1 1.00459,-0.43821 z m 158.786679,0 a 1.4999999,1.4999999 0 0 1 1.11673,0.43821 1.4999999,1.4999999 0 0 1 0,2.12132 1.4999999,1.4999999 0 0 1 -2.12131,0 1.4999999,1.4999999 0 0 1 0,-2.12132 1.4999999,1.4999999 0 0 1 1.00458,-0.43821 z m 21.21318,0 a 1.4999999,1.4999999 0 0 1 1.11673,0.43821 1.4999999,1.4999999 0 0 1 0,2.12132 1.4999999,1.4999999 0 0 1 -2.12132,0 1.4999999,1.4999999 0 0 1 0,-2.12132 1.4999999,1.4999999 0 0 1 1.00459,-0.43821 z m -190.550118,4.39198 a 1.4999999,1.4999999 0 0 1 1.49965,1.50017 1.4999999,1.4999999 0 0 1 -1.49965,1.50016 1.4999999,1.4999999 0 0 1 -1.500166,-1.50016 1.4999999,1.4999999 0 0 1 1.500166,-1.50017 z m 179.999858,0 a 1.4999999,1.4999999 0 0 1 1.49965,1.50017 1.4999999,1.4999999 0 0 1 -1.49965,1.50016 1.4999999,1.4999999 0 0 1 -1.50017,-1.50016 1.4999999,1.4999999 0 0 1 1.50017,-1.50017 z"/>
  </g>
</svg>