<svg xmlns:inkscape="http://www.inkscape.org/namespaces/inkscape" xmlns:sodipodi="http://sodipodi.sourceforge.net/DTD/sodipodi-0.dtd" xmlns:xlink="http://www.w3.org/1999/xlink" xmlns="http://www.w3.org/2000/svg" xmlns:svg="http://www.w3.org/2000/svg" xmlns:rdf="http://www.w3.org/1999/02/22-rdf-syntax-ns#" xmlns:cc="http://creativecommons.org/ns#" xmlns:dc="http://purl.org/dc/elements/1.1/" sodipodi:docname="2D_parts.svg" inkscape:version="1.1 (c68e22c387, 2021-05-23)" id="svg4164" version="1.1" viewBox="0 0 304.8 304.8" height="304.79999mm" width="304.79999mm">
  <defs id="defs4158"/>
  <sodipodi:namedview inkscape:snap-nodes="false" inkscape:document-rotation="0" inkscape:object-nodes="true" inkscape:snap-bbox-midpoints="true" inkscape:snap-bbox="true" inkscape:snap-midpoints="false" inkscape:snap-intersection-paths="true" inkscape:object-paths="true" inkscape:snap-others="true" inkscape:snap-center="true" inkscape:snap-global="true" inkscape:snap-smooth-nodes="true" inkscape:snap-grids="true" inkscape:guide-bbox="true" showguides="false" inkscape:measure-end="1152.76,1135.75" inkscape:measure-start="1152.76,1192.63" inkscape:snap-object-midpoints="true" inkscape:window-maximized="1" inkscape:window-y="-8" inkscape:window-x="-8" inkscape:window-height="705" inkscape:window-width="1366" showgrid="false" inkscape:current-layer="layer12" inkscape:document-units="mm" inkscape:cy="-5.736528" inkscape:cx="917.02498" inkscape:zoom="0.61012515" inkscape:pageshadow="2" inkscape:pageopacity="0.0" borderopacity="1.0" bordercolor="#666666" pagecolor="#ffffff" id="base" inkscape:bbox-paths="true" inkscape:bbox-nodes="true" inkscape:snap-bbox-edge-midpoints="true" inkscape:pagecheckerboard="0" units="mm">
    <inkscape:grid empspacing="10" spacingy="0.99999999" spacingx="0.99999999" units="mm" id="grid4709" type="xygrid"/>
  </sodipodi:namedview>
  <metadata id="metadata4161">
    <rdf:RDF>
      <cc:Work rdf:about="">
        <dc:format>image/svg+xml</dc:format>
        <dc:type rdf:resource="http://purl.org/dc/dcmitype/StillImage"/>
      </cc:Work>
    </rdf:RDF>
  </metadata>
  <g inkscape:groupmode="layer" id="layer14" inkscape:label="encoder_8mm-pitch_80mm-radius" style="display:none">
    <path id="circle15970-8" style="color:#000000;clip-rule:nonzero;display:inline;overflow:visible;visibility:visible;isolation:auto;mix-blend-mode:normal;color-interpolation:sRGB;color-interpolation-filters:linearRGB;solid-color:#000000;solid-opacity:1;fill:#cccccc;fill-opacity:1;fill-rule:evenodd;stroke:none;stroke-width:0.500002;stroke-linecap:square;stroke-linejoin:miter;stroke-miterlimit:4;stroke-dasharray:none;stroke-dashoffset:0;stroke-opacity:1;color-rendering:auto;image-rendering:auto;shape-rendering:auto;text-rendering:auto;enable-background:accumulate" d="M 59.735197,10.58691 A 50.000344,50.000344 0 0 0 9.7346373,60.58747 50.000344,50.000344 0 0 0 59.735197,110.58753 50.000344,50.000344 0 0 0 109.73524,60.58747 50.000344,50.000344 0 0 0 59.735197,10.58691 Z m 0,4.50051 c 1.72104,0 3.44009,0.0982 5.15006,0.293 l -1.13067,9.93532 c -1.33419,-0.15203 -2.6766,-0.22842 -4.01939,-0.22842 z m -6.72465,0.50022 1.47847,9.89037 c -1.32808,0.19846 -2.64433,0.47101 -3.94137,0.81854 l -2.58797,-9.65832 c 1.6624,-0.44546 3.3487,-0.79619 5.05087,-1.05059 z m 18.5017,1.05059 c 1.66243,0.44545 3.29711,0.98464 4.89842,1.61541 l -3.66387,9.30434 c -1.24936,-0.49216 -2.52545,-0.91387 -3.82251,-1.26143 z m -29.91961,2.2226 3.98785,9.16998 c -1.23142,0.53547 -2.43273,1.14089 -3.59563,1.81229 l -4.9997,-8.65994 c 1.49048,-0.86053 3.02916,-1.63605 4.60748,-2.32233 z m 40.89257,2.32233 c 1.49051,0.86053 2.931,1.80454 4.31448,2.82826 l -5.94743,8.03878 c -1.07942,-0.79872 -2.20435,-1.53569 -3.36725,-2.2071 z m -51.0744,3.79513 6.22443,7.82587 c -1.0509,0.8359 -2.05234,1.73199 -3.00188,2.6815 l -7.07192,-7.07192 c 1.21701,-1.21697 2.50246,-2.36407 3.84937,-3.43545 z m 60.49812,3.43545 c 1.21698,1.21696 2.36408,2.50249 3.43546,3.84937 l -7.82641,6.22494 c -0.83589,-1.05088 -1.72992,-2.05291 -2.6794,-3.00239 z m -68.74825,5.10924 8.03725,5.94744 c -0.79875,1.07942 -1.53569,2.20435 -2.2071,3.36724 l -8.65995,-5.00022 c 0.86056,-1.49046 1.80608,-2.93098 2.8298,-4.31446 z m 75.97884,4.31446 c 0.860533,1.49045 1.636053,3.02921 2.322323,4.60748 l -9.169983,3.98631 c -0.53544,-1.23139 -1.14138,-2.4307 -1.81282,-3.59357 z m -81.73868,6.07406 9.30484,3.66437 c -0.49213,1.24937 -0.91388,2.52701 -1.26141,3.82405 l -9.65832,-2.59 c 0.44543,-1.66243 0.98412,-3.29713 1.61489,-4.89842 z m 42.33436,0.17568 a 1.4999999,1.4999999 0 0 1 1.49963,1.50019 1.4999999,1.4999999 0 0 1 -1.49963,1.50016 1.4999999,1.4999999 0 0 1 -1.50016,-1.50016 1.4999999,1.4999999 0 0 1 1.50016,-1.50019 z m -10.66292,4.39458 a 1.4999999,1.4999999 0 0 1 1.11673,0.43822 1.4999999,1.4999999 0 0 1 0,2.1213 1.4999999,1.4999999 0 0 1 -2.12133,0 1.4999999,1.4999999 0 0 1 0,-2.1213 1.4999999,1.4999999 0 0 1 1.0046,-0.43822 z m 21.21318,0 a 1.4999999,1.4999999 0 0 1 1.11673,0.43822 1.4999999,1.4999999 0 0 1 0,2.1213 1.4999999,1.4999999 0 0 1 -2.12133,0 1.4999999,1.4999999 0 0 1 0,-2.1213 1.4999999,1.4999999 0 0 1 1.0046,-0.43822 z m 33.398993,0.33022 c 0.44543,1.66241 0.79621,3.3487 1.05058,5.05084 l -9.888803,1.47641 c -0.19847,-1.32805 -0.47257,-2.64227 -0.8201,-3.93931 z m -43.949253,0.27543 a 1.4999999,1.4999999 0 0 1 1.49963,1.50016 1.4999999,1.4999999 0 0 1 -1.49963,1.49966 1.4999999,1.4999999 0 0 1 -1.50016,-1.49966 1.4999999,1.4999999 0 0 1 1.50016,-1.50016 z m -7.12721,2.93005 a 1.4999999,1.4999999 0 0 1 1.11672,0.4382 1.4999999,1.4999999 0 0 1 0,2.12133 1.4999999,1.4999999 0 0 1 -2.12132,0 1.4999999,1.4999999 0 0 1 0,-2.12133 1.4999999,1.4999999 0 0 1 1.0046,-0.4382 z m 14.14176,0 a 1.4999999,1.4999999 0 0 1 1.11673,0.4382 1.4999999,1.4999999 0 0 1 0,2.12133 1.4999999,1.4999999 0 0 1 -2.12132,0 1.4999999,1.4999999 0 0 1 0,-2.12133 1.4999999,1.4999999 0 0 1 1.00459,-0.4382 z m -7.01455,2.07015 a 6.4999999,6.4999999 0 0 1 6.49986,6.49986 6.4999999,6.4999999 0 0 1 -6.49986,6.49986 6.4999999,6.4999999 0 0 1 -6.50039,-6.49986 6.4999999,6.4999999 0 0 1 6.50039,-6.49986 z m -45.20708,1.34927 9.93532,1.1312 c -0.15201,1.33416 -0.22839,2.67661 -0.22842,4.01939 h -9.9999 c 3e-5,-1.72103 0.0982,-3.44058 0.293,-5.15059 z m 30.20695,3.65043 a 1.4999999,1.4999999 0 0 1 1.50016,1.50016 1.4999999,1.4999999 0 0 1 -1.50016,1.49966 1.4999999,1.4999999 0 0 1 -1.50016,-1.49966 1.4999999,1.4999999 0 0 1 1.50016,-1.50016 z m 5.00023,0 a 1.4999999,1.4999999 0 0 1 1.49963,1.50016 1.4999999,1.4999999 0 0 1 -1.49963,1.49966 1.4999999,1.4999999 0 0 1 -1.50019,-1.49966 1.4999999,1.4999999 0 0 1 1.50019,-1.50016 z m 19.9998,0 a 1.4999999,1.4999999 0 0 1 1.50016,1.50016 1.4999999,1.4999999 0 0 1 -1.50016,1.49966 1.4999999,1.4999999 0 0 1 -1.50016,-1.49966 1.4999999,1.4999999 0 0 1 1.50016,-1.50016 z m 4.9997,0 a 1.4999999,1.4999999 0 0 1 1.50016,1.50016 1.4999999,1.4999999 0 0 1 -1.50016,1.49966 1.4999999,1.4999999 0 0 1 -1.49966,-1.49966 1.4999999,1.4999999 0 0 1 1.49966,-1.50016 z m 20.50005,1.50016 h 10.000403 c -2e-5,1.72109 -0.0981,3.44059 -0.29299,5.1506 l -9.935833,-1.1312 c 0.15201,-1.33417 0.22837,-2.67658 0.22842,-4.0194 z m -70.60914,5.24828 c 0.19846,1.32805 0.47103,2.64223 0.81856,3.93927 l -9.65832,2.58797 c -0.44542,-1.66243 -0.79674,-3.3487 -1.05111,-5.05087 z m 27.98228,0.32401 a 1.4999999,1.4999999 0 0 1 1.11672,0.4382 1.4999999,1.4999999 0 0 1 0,2.12132 1.4999999,1.4999999 0 0 1 -2.12132,0 1.4999999,1.4999999 0 0 1 0,-2.12132 1.4999999,1.4999999 0 0 1 1.0046,-0.4382 z m 14.14176,0 a 1.4999999,1.4999999 0 0 1 1.11723,0.4382 1.4999999,1.4999999 0 0 1 0,2.12132 1.4999999,1.4999999 0 0 1 -2.12129,0 1.4999999,1.4999999 0 0 1 0,-2.12132 1.4999999,1.4999999 0 0 1 1.00406,-0.4382 z m -7.01455,2.92745 a 1.4999999,1.4999999 0 0 1 1.49963,1.50016 1.4999999,1.4999999 0 0 1 -1.49963,1.50019 1.4999999,1.4999999 0 0 1 -1.50016,-1.50019 1.4999999,1.4999999 0 0 1 1.50016,-1.50016 z m -10.66292,0.60773 a 1.4999999,1.4999999 0 0 1 1.11673,0.4382 1.4999999,1.4999999 0 0 1 0,2.12132 1.4999999,1.4999999 0 0 1 -2.12133,0 1.4999999,1.4999999 0 0 1 0,-2.12132 1.4999999,1.4999999 0 0 1 1.0046,-0.4382 z m 21.21318,0 a 1.4999999,1.4999999 0 0 1 1.11673,0.4382 1.4999999,1.4999999 0 0 1 0,2.12132 1.4999999,1.4999999 0 0 1 -2.12133,0 1.4999999,1.4999999 0 0 1 0,-2.12132 1.4999999,1.4999999 0 0 1 1.0046,-0.4382 z m 23.74067,0.0801 9.658323,2.58951 c -0.44545,1.66243 -0.98465,3.29763 -1.61541,4.89894 l -9.302783,-3.66437 c 0.49212,-1.24939 0.91234,-2.52703 1.25987,-3.82408 z m -34.29093,4.31242 a 1.4999999,1.4999999 0 0 1 1.49963,1.50016 1.4999999,1.4999999 0 0 1 -1.49963,1.49965 1.4999999,1.4999999 0 0 1 -1.50016,-1.49965 1.4999999,1.4999999 0 0 1 1.50016,-1.50016 z m -32.5546,0.65627 c 0.53547,1.23148 1.1388,2.43066 1.81023,3.59359 l -8.65995,5.00021 c -0.86055,-1.49051 -1.63605,-3.02912 -2.32235,-4.60747 z m 63.29844,3.59359 8.66048,5.00021 c -0.86056,1.49048 -1.80451,2.93099 -2.82827,4.31447 l -8.03931,-5.94744 c 0.79875,-1.07943 1.5357,-2.20433 2.2071,-3.36724 z m -58.52715,4.34961 c 0.8359,1.05088 1.73199,2.05239 2.68147,3.00188 l -7.07192,7.07244 c -1.21695,-1.21698 -2.36458,-2.5025 -3.43595,-3.8494 z m 52.88669,3.00188 7.07035,7.07244 c -1.21698,1.21694 -2.50293,2.36408 -3.84987,3.43545 l -6.22443,-7.82588 c 1.0509,-0.83589 2.05441,-1.73253 3.00395,-2.68201 z m -46.2189,3.43597 c 1.07942,0.79874 2.20226,1.53517 3.36518,2.20658 l -4.9997,8.66045 c -1.49048,-0.86054 -2.93097,-1.80452 -4.31445,-2.82825 z m 38.86533,2.20658 5.0002,8.66045 c -1.49047,0.86051 -3.02913,1.63609 -4.60745,2.32234 l -3.98632,-9.16998 c 1.23142,-0.53543 2.43067,-1.14142 3.59357,-1.81281 z m -30.75987,2.28565 c 1.24938,0.49216 2.52544,0.91385 3.82251,1.26142 l -2.58797,9.65832 c -1.6624,-0.44546 -3.29917,-0.98459 -4.90048,-1.6154 z m 22.19761,1.26142 2.5895,9.65832 c -1.6624,0.44542 -3.35026,0.79622 -5.0524,1.05059 l -1.4769,-9.89035 c 1.32805,-0.19848 2.64273,-0.47104 3.9398,-0.81856 z m -13.20541,0.9803 c 1.33422,0.15202 2.67502,0.22893 4.01786,0.22893 v 9.9999 c -1.72109,0 -3.44056,-0.0982 -5.15059,-0.293 z"/>
  </g>
  </svg>